<svg xmlns="http://www.w3.org/2000/svg" viewBox="0 0 820 102"><defs><style>.cls-1{fill:#b9d6f2;}.cls-2{fill:#006e90;}.cls-3{fill:#404041;}.cls-4{fill:#808081;}</style></defs><title>cioos-pacific_logo</title><g id="full_en_fr"><path class="cls-1" d="M428.71,39.42l-16-23.14L387.25,3.65l-.05,0-30.4,8.83h-.18L340.75,31.32l-.06.07v.15l-4.46,30.89v.18l16,23.11,25.47,12.63.24,0,30-8.83h.18l15.88-18.87.06-.07v-.24l4.55-30.13m-8.29,3.87-8.25-24,15.55,19.39ZM349.6,61.45l-8.33-23.57,20.07-5.1Zm.25.73L350,62l.32-.33,11.76-28.65,13,24.46Zm25.5-3.72-.63,25.37L350.61,63.05Zm-12.5-25.85,31.58,2.89L375.85,57.06Zm32.7,1.79-12.2-21.35,26.55,5Zm15.1-15.81L419.44,44,396.3,34.91ZM402.77,67l-26.26-9.3L395.19,36.1Zm-8.19-32.35-31.41-2.87L382.34,13.2ZM376.23,58.51l26.21,9.28L375.69,83.92ZM403,68.57l-1.7,21-24.84-5Zm-6.88-32.68,23.32,9.18L403.8,66.59Zm16.13-18.74,9.75,14L411.47,17.77Zm-.86-.58-.69.57L397.44,9.6Zm-3.18.17-25.08-4.68,4-7.47ZM386,4.75,382.15,12l-21.89.34Zm-4.68,8.12L362.36,31.19l-4.92-18ZM356.65,14l4.89,17.8-19.85,5.08ZM341.46,31.77l12-14.35L341,36.09Zm-.61,7.69L349,62.27,337.15,62ZM337.43,63l11.65.26,2.72,20.5Zm12.68.91,23.83,20.53-21.07.71ZM354.31,86l20.45-.7,2.45,12Zm23.91,11.63-2.47-12.17,24.08,4.85Zm29.52-8.74L403,89.5l17.39-15.59Zm-5.61.1,1.78-20.77,18.81,2.59Zm2.19-21.62,15.47-21.27L423.18,70Zm19.41.07-3-22.33,7.11-4.55Z"/><path class="cls-2" d="M352.76,61.5a3.83,3.83,0,0,0-2.14-2.08,3.88,3.88,0,0,0-3,0,3.9,3.9,0,0,0,.12,7.21,4,4,0,0,0,1.43.28,3.79,3.79,0,0,0,1.55-.33,3.89,3.89,0,0,0,2-5.13Z"/><path class="cls-2" d="M398.48,32a4.7,4.7,0,0,0-6.09,7.15,4.61,4.61,0,0,0,3,1.11,2.55,2.55,0,0,0,.39,0A4.7,4.7,0,0,0,398.48,32Z"/><path class="cls-2" d="M413.4,17.13a3.11,3.11,0,1,0-2.85,4.35,3.1,3.1,0,0,0,2.85-4.35Z"/><path class="cls-2" d="M378.9,56.53a3.11,3.11,0,1,0-4,4.13,3.05,3.05,0,0,0,1.15.22,3.12,3.12,0,0,0,2.85-4.35Z"/><path class="cls-2" d="M422.84,43.41a3.12,3.12,0,0,0-4.09-1.62,3.11,3.11,0,0,0,.09,5.75,3,3,0,0,0,1.14.22,3,3,0,0,0,1.24-.26A3.11,3.11,0,0,0,422.84,43.41Z"/><path class="cls-3" d="M453.21,48.06a11.58,11.58,0,0,1-5.23-1A15.67,15.67,0,0,1,443.77,44a1.41,1.41,0,0,1-.16-.21.76.76,0,0,1-.07-.37.87.87,0,0,1,.27-.6.79.79,0,0,1,.58-.3.91.91,0,0,1,.67.35,10.53,10.53,0,0,0,8,3.67,9.21,9.21,0,0,0,3.55-.64A5.72,5.72,0,0,0,459.06,44a4.47,4.47,0,0,0,.9-2.78,4.87,4.87,0,0,0-1.1-3.2,8,8,0,0,0-2.71-2c-1.1-.52-2.27-1-3.49-1.45-1-.36-1.91-.74-2.85-1.13a11.91,11.91,0,0,1-2.53-1.42,6.1,6.1,0,0,1-1.79-2.11,6.6,6.6,0,0,1-.67-3.14,6.07,6.07,0,0,1,1-3.45,7.17,7.17,0,0,1,3-2.45A10.63,10.63,0,0,1,453.4,20a12.12,12.12,0,0,1,4.33.8,7.23,7.23,0,0,1,3.32,2.4,1.69,1.69,0,0,1,.39.82.77.77,0,0,1-.29.54.91.91,0,0,1-.65.28.63.63,0,0,1-.51-.24A7.24,7.24,0,0,0,458.3,23a8.1,8.1,0,0,0-2.24-1.05,9.24,9.24,0,0,0-2.66-.37,9.4,9.4,0,0,0-3.47.62,6,6,0,0,0-2.49,1.78,4.31,4.31,0,0,0-.94,2.83,4.24,4.24,0,0,0,1,2.94,8.24,8.24,0,0,0,2.64,1.91c1.06.51,2.15,1,3.27,1.39s2,.7,2.95,1.11a11.81,11.81,0,0,1,2.65,1.5,6.59,6.59,0,0,1,1.89,2.26,7.46,7.46,0,0,1,.7,3.43,5.79,5.79,0,0,1-1,3.32,7.43,7.43,0,0,1-2.91,2.45A10.21,10.21,0,0,1,453.21,48.06Z"/><path class="cls-3" d="M470.56,46.85a.93.93,0,0,1-.27.59.83.83,0,0,1-1.15,0,.87.87,0,0,1-.21-.59V21.19a.79.79,0,0,1,.81-.82.82.82,0,0,1,.59.23.84.84,0,0,1,.23.59Z"/><path class="cls-3" d="M503.87,34a16.14,16.14,0,0,1-1,5.69,13,13,0,0,1-2.71,4.45,12.2,12.2,0,0,1-4.13,2.89,14,14,0,0,1-10.45,0,12.14,12.14,0,0,1-4.14-2.89,13.11,13.11,0,0,1-2.71-4.45,16.14,16.14,0,0,1-.95-5.69,16.14,16.14,0,0,1,.95-5.69,13.11,13.11,0,0,1,2.71-4.45A12.14,12.14,0,0,1,485.62,21a14,14,0,0,1,10.45,0,12.2,12.2,0,0,1,4.13,2.89,13,13,0,0,1,2.71,4.45A16.14,16.14,0,0,1,503.87,34Zm-1.64,0a14,14,0,0,0-1.46-6.55,11,11,0,0,0-4-4.37,11.94,11.94,0,0,0-11.8,0,10.85,10.85,0,0,0-4,4.37A13.9,13.9,0,0,0,479.46,34a13.9,13.9,0,0,0,1.46,6.55,10.85,10.85,0,0,0,4,4.37,11.94,11.94,0,0,0,11.8,0,11,11,0,0,0,4-4.37A14,14,0,0,0,502.23,34Z"/><path class="cls-3" d="M535.22,34a16.14,16.14,0,0,1-1,5.69,13.11,13.11,0,0,1-2.71,4.45,12.14,12.14,0,0,1-4.14,2.89,14,14,0,0,1-10.45,0,12.2,12.2,0,0,1-4.13-2.89,13,13,0,0,1-2.71-4.45,16.14,16.14,0,0,1-1-5.69,16.14,16.14,0,0,1,1-5.69,13,13,0,0,1,2.71-4.45A12.2,12.2,0,0,1,517,21a14,14,0,0,1,10.45,0,12.14,12.14,0,0,1,4.14,2.89,13.11,13.11,0,0,1,2.71,4.45A16.14,16.14,0,0,1,535.22,34Zm-1.63,0a13.91,13.91,0,0,0-1.47-6.55,10.87,10.87,0,0,0-4-4.37,11.94,11.94,0,0,0-11.8,0,10.87,10.87,0,0,0-4,4.37A14,14,0,0,0,510.81,34a14,14,0,0,0,1.46,6.55,10.87,10.87,0,0,0,4,4.37,11.94,11.94,0,0,0,11.8,0,10.87,10.87,0,0,0,4-4.37A13.91,13.91,0,0,0,533.59,34Z"/><path class="cls-3" d="M562.68,22.63a.81.81,0,0,1,.35.53.93.93,0,0,1-.15.6.67.67,0,0,1-.49.3,1,1,0,0,1-.57-.14,14.56,14.56,0,0,0-3.57-1.79,12.34,12.34,0,0,0-4.11-.67,11.81,11.81,0,0,0-4.66.92,11.51,11.51,0,0,0-3.8,2.59,12.26,12.26,0,0,0-2.58,4,14.28,14.28,0,0,0,0,10.14,12.26,12.26,0,0,0,2.58,4,11.51,11.51,0,0,0,3.8,2.59,11.81,11.81,0,0,0,4.66.92,12.44,12.44,0,0,0,4.09-.66,15.67,15.67,0,0,0,3.55-1.76.84.84,0,0,1,.59-.16.73.73,0,0,1,.51.32.81.81,0,0,1,.15.58.73.73,0,0,1-.31.51,14,14,0,0,1-2.36,1.29,18.1,18.1,0,0,1-3,1,14,14,0,0,1-3.2.37A13.29,13.29,0,0,1,548.87,47a13.7,13.7,0,0,1-7.27-7.39,14.26,14.26,0,0,1-1.07-5.6,14.26,14.26,0,0,1,1.07-5.6A13.7,13.7,0,0,1,548.87,21,13.29,13.29,0,0,1,554.14,20a15,15,0,0,1,4.58.7A14.34,14.34,0,0,1,562.68,22.63Z"/><path class="cls-3" d="M591.77,20.37a7.66,7.66,0,0,1,3.88.94,6.48,6.48,0,0,1,2.58,2.61,8,8,0,0,1,.91,3.9,8.38,8.38,0,0,1-.91,3.94,7,7,0,0,1-2.58,2.77,7.31,7.31,0,0,1-3.88,1h-8.65l.15-.27V46.89a.73.73,0,0,1-.25.55.85.85,0,0,1-.57.23.78.78,0,0,1-.6-.23.82.82,0,0,1-.22-.55V21.15a.8.8,0,0,1,.78-.78Zm0,13.61a5.62,5.62,0,0,0,3.06-.8,5.32,5.32,0,0,0,2-2.2,7,7,0,0,0,.71-3.16,6.42,6.42,0,0,0-.71-3.1,5.11,5.11,0,0,0-2-2,6,6,0,0,0-3.06-.74h-8.62l.12-.19V34.1l-.15-.12Z"/><path class="cls-3" d="M613.5,22.36l-9.87,24.8a.68.68,0,0,1-.27.37.71.71,0,0,1-.43.14.77.77,0,0,1-.59-.2.75.75,0,0,1-.23-.46.61.61,0,0,1,0-.39L612.64,20.8a.7.7,0,0,1,.29-.41,1,1,0,0,1,.45-.1.82.82,0,0,1,.5.14.65.65,0,0,1,.28.37l10.49,25.82a.9.9,0,0,1,0,.31.68.68,0,0,1-.23.54.86.86,0,0,1-.59.2.85.85,0,0,1-.49-.14.67.67,0,0,1-.29-.37L612.91,22.05Zm-7.22,16.85.55-1.56h12.63l.39,1.56Z"/><path class="cls-3" d="M651.37,22.63a.85.85,0,0,1,.35.53.94.94,0,0,1-.16.6.64.64,0,0,1-.49.3,1,1,0,0,1-.56-.14,14.56,14.56,0,0,0-3.57-1.79,12.4,12.4,0,0,0-4.12-.67,11.88,11.88,0,0,0-4.66.92,11.51,11.51,0,0,0-3.8,2.59,12.23,12.23,0,0,0-2.57,4,13.19,13.19,0,0,0-.94,5.07,13.19,13.19,0,0,0,.94,5.07,12.23,12.23,0,0,0,2.57,4,11.51,11.51,0,0,0,3.8,2.59,11.88,11.88,0,0,0,4.66.92,12.5,12.5,0,0,0,4.1-.66,15.88,15.88,0,0,0,3.55-1.76.83.83,0,0,1,.58-.16.71.71,0,0,1,.51.32.82.82,0,0,1,.16.58.71.71,0,0,1-.32.51A13.66,13.66,0,0,1,649,46.7a17.52,17.52,0,0,1-3,1,13.91,13.91,0,0,1-3.2.37A13.25,13.25,0,0,1,637.56,47a13.7,13.7,0,0,1-7.27-7.39,15.06,15.06,0,0,1,0-11.2A13.7,13.7,0,0,1,637.56,21,13.25,13.25,0,0,1,642.82,20a15,15,0,0,1,4.59.7A14.34,14.34,0,0,1,651.37,22.63Z"/><path class="cls-3" d="M660,46.85a1,1,0,0,1-.27.59.83.83,0,0,1-1.15,0,.88.88,0,0,1-.22-.59V21.19a.8.8,0,0,1,.82-.82.82.82,0,0,1,.59.23.84.84,0,0,1,.23.59Z"/><path class="cls-3" d="M670,47.67a.75.75,0,0,1-.57-.23.81.81,0,0,1-.21-.55V21.15a.74.74,0,0,1,.23-.55.78.78,0,0,1,.55-.23h14.7a.74.74,0,0,1,.54.23.77.77,0,0,1,0,1.12.76.76,0,0,1-.54.21h-14l.12-.16V33l-.16-.32H683a.75.75,0,0,1,.55.24.72.72,0,0,1,.23.54.71.71,0,0,1-.23.57.81.81,0,0,1-.55.21h-12.4l.24-.31v13a.82.82,0,0,1-.22.55A.74.74,0,0,1,670,47.67Z"/><path class="cls-3" d="M694.38,46.85a1,1,0,0,1-.27.59.83.83,0,0,1-1.15,0,.83.83,0,0,1-.22-.59V21.19a.8.8,0,0,1,.82-.82.79.79,0,0,1,.82.82Z"/><path class="cls-3" d="M727.69,34a16.14,16.14,0,0,1-1,5.69A13.11,13.11,0,0,1,724,44.16a12.2,12.2,0,0,1-4.13,2.89,14,14,0,0,1-10.46,0,12.2,12.2,0,0,1-4.13-2.89,13.11,13.11,0,0,1-2.71-4.45,16.14,16.14,0,0,1-1-5.69,16.14,16.14,0,0,1,1-5.69,13.11,13.11,0,0,1,2.71-4.45A12.2,12.2,0,0,1,709.43,21a14,14,0,0,1,10.46,0A12.2,12.2,0,0,1,724,23.88a13.11,13.11,0,0,1,2.71,4.45A16.14,16.14,0,0,1,727.69,34Zm-1.64,0a14,14,0,0,0-1.46-6.55,11,11,0,0,0-4-4.37,11.94,11.94,0,0,0-11.8,0,10.87,10.87,0,0,0-4,4.37A14,14,0,0,0,703.27,34a14,14,0,0,0,1.46,6.55,10.87,10.87,0,0,0,4,4.37,11.94,11.94,0,0,0,11.8,0,11,11,0,0,0,4-4.37A14,14,0,0,0,726.05,34Zm4.05,16.19a.61.61,0,0,1,.67.66,1.59,1.59,0,0,1-.65,1.15,6.93,6.93,0,0,1-1.69,1,11.15,11.15,0,0,1-2.24.76,10.41,10.41,0,0,1-2.29.27,12.48,12.48,0,0,1-3.88-.52,18.23,18.23,0,0,1-2.84-1.21,24.41,24.41,0,0,0-2.6-1.21,8.57,8.57,0,0,0-3.16-.53,3.58,3.58,0,0,0-1.26.22,7.13,7.13,0,0,0-1,.43,1.68,1.68,0,0,1-.76.21.74.74,0,0,1-.54-.23.79.79,0,0,1-.24-.59.67.67,0,0,1,.43-.66l6.28-2.18,3.59-.16-5.74,1.87,0-.31a8.73,8.73,0,0,1,3.08.51,19.55,19.55,0,0,1,2.64,1.19,19.62,19.62,0,0,0,2.71,1.19,10.15,10.15,0,0,0,3.31.5,7.12,7.12,0,0,0,2.77-.46c.73-.32,1.3-.59,1.72-.82a3.52,3.52,0,0,0,.91-.73A1.09,1.09,0,0,1,730.1,50.21Z"/><path class="cls-3" d="M754.79,20.37a.76.76,0,0,1,.57.23.81.81,0,0,1,.21.55V38a9.66,9.66,0,0,1-1.36,5,10.57,10.57,0,0,1-3.63,3.65,10,10,0,0,1-10.08,0,10.46,10.46,0,0,1-3.65-3.65,9.66,9.66,0,0,1-1.36-5V21.15a.81.81,0,0,1,.21-.55.78.78,0,0,1,.6-.23.82.82,0,0,1,.59.23.78.78,0,0,1,.23.55V38a8.34,8.34,0,0,0,1.13,4.27,8.63,8.63,0,0,0,3.07,3.08,8.39,8.39,0,0,0,8.48,0,8.85,8.85,0,0,0,3.06-3.08A8.16,8.16,0,0,0,754,38V21.15a.81.81,0,0,1,.21-.55A.78.78,0,0,1,754.79,20.37Z"/><path class="cls-3" d="M765.55,20.37h14.71a.8.8,0,0,1,.78.78.75.75,0,0,1-.24.57.78.78,0,0,1-.54.21H766l.39-.66V33.36l-.46-.55H778.5a.78.78,0,0,1,.55.23.74.74,0,0,1,.23.55.73.73,0,0,1-.23.57.81.81,0,0,1-.55.21H766l.39-.43V46.3l-.15-.19h14a.8.8,0,0,1,.78.78.75.75,0,0,1-.24.57.78.78,0,0,1-.54.21H765.55a.76.76,0,0,1-.54-.23.74.74,0,0,1-.23-.55V21.15a.74.74,0,0,1,.23-.55A.76.76,0,0,1,765.55,20.37Z"/><path class="cls-4" d="M446.42,60.7,443.13,69a.18.18,0,0,1-.09.12.24.24,0,0,1-.14,0,.26.26,0,0,1-.2-.07.26.26,0,0,1-.07-.15.2.2,0,0,1,0-.13l3.5-8.61a.24.24,0,0,1,.09-.14.33.33,0,0,1,.15,0,.29.29,0,0,1,.17.05.18.18,0,0,1,.09.12l3.5,8.61a.28.28,0,0,1,0,.1.21.21,0,0,1-.07.18.29.29,0,0,1-.2.07.3.3,0,0,1-.16,0,.23.23,0,0,1-.1-.12l-3.39-8.37ZM444,66.32l.18-.52h4.21l.13.52Z"/><path class="cls-4" d="M454.29,69.27a3.93,3.93,0,0,1-1.75-.34,5.19,5.19,0,0,1-1.4-1s0,0-.05-.07a.21.21,0,0,1,0-.12.28.28,0,0,1,.09-.2.26.26,0,0,1,.2-.1.29.29,0,0,1,.22.12,3.52,3.52,0,0,0,2.66,1.22,3,3,0,0,0,1.19-.22,1.89,1.89,0,0,0,.82-.61,1.48,1.48,0,0,0,.3-.93,1.58,1.58,0,0,0-.37-1.06,2.72,2.72,0,0,0-.9-.67q-.56-.26-1.17-.48l-.94-.37a3.68,3.68,0,0,1-.85-.48,2,2,0,0,1-.6-.7,2.33,2.33,0,0,1-.22-1,2,2,0,0,1,.35-1.15,2.49,2.49,0,0,1,1-.82,3.6,3.6,0,0,1,1.53-.3,4.13,4.13,0,0,1,1.44.26,2.49,2.49,0,0,1,1.11.8.55.55,0,0,1,.13.28.24.24,0,0,1-.1.18.29.29,0,0,1-.21.09.21.21,0,0,1-.17-.08,2.44,2.44,0,0,0-.57-.54,2.65,2.65,0,0,0-.74-.35,3.24,3.24,0,0,0-.89-.12,3.11,3.11,0,0,0-1.16.21,1.94,1.94,0,0,0-.83.59,1.42,1.42,0,0,0-.31.94,1.4,1.4,0,0,0,.35,1,2.63,2.63,0,0,0,.87.64c.36.17.72.32,1.09.46s.66.24,1,.37a3.79,3.79,0,0,1,.88.5,2.23,2.23,0,0,1,.63.76A2.41,2.41,0,0,1,457.1,67a1.89,1.89,0,0,1-.35,1.1,2.46,2.46,0,0,1-1,.82A3.38,3.38,0,0,1,454.29,69.27Z"/><path class="cls-4" d="M461.44,69.27a3.93,3.93,0,0,1-1.75-.34,5.19,5.19,0,0,1-1.4-1s0,0-.05-.07a.21.21,0,0,1,0-.12.28.28,0,0,1,.09-.2.26.26,0,0,1,.2-.1.29.29,0,0,1,.22.12,3.52,3.52,0,0,0,2.67,1.22,3,3,0,0,0,1.18-.22,1.89,1.89,0,0,0,.82-.61,1.48,1.48,0,0,0,.3-.93,1.58,1.58,0,0,0-.37-1.06,2.72,2.72,0,0,0-.9-.67c-.37-.17-.76-.33-1.16-.48l-.95-.37a3.68,3.68,0,0,1-.85-.48,2,2,0,0,1-.6-.7,2.33,2.33,0,0,1-.22-1A2,2,0,0,1,459,61a2.46,2.46,0,0,1,1-.82,3.52,3.52,0,0,1,1.52-.3,4.13,4.13,0,0,1,1.44.26,2.49,2.49,0,0,1,1.11.8.55.55,0,0,1,.13.28.24.24,0,0,1-.1.18.29.29,0,0,1-.21.09.21.21,0,0,1-.17-.08,2.44,2.44,0,0,0-.57-.54,2.65,2.65,0,0,0-.74-.35,3.24,3.24,0,0,0-.89-.12,3,3,0,0,0-1.15.21,1.91,1.91,0,0,0-.84.59,1.48,1.48,0,0,0-.31.94,1.4,1.4,0,0,0,.35,1,2.63,2.63,0,0,0,.87.64c.36.17.72.32,1.1.46s.65.24,1,.37a3.79,3.79,0,0,1,.88.5,2.13,2.13,0,0,1,.63.76,2.41,2.41,0,0,1,.24,1.14,1.89,1.89,0,0,1-.35,1.1,2.46,2.46,0,0,1-1,.82A3.38,3.38,0,0,1,461.44,69.27Z"/><path class="cls-4" d="M474.24,64.59a5.3,5.3,0,0,1-.32,1.9A4.36,4.36,0,0,1,473,68a4.18,4.18,0,0,1-1.38,1,4.62,4.62,0,0,1-3.48,0,4.18,4.18,0,0,1-1.38-1,4.36,4.36,0,0,1-.9-1.48,5.3,5.3,0,0,1-.32-1.9,5.23,5.23,0,0,1,.32-1.9,4.26,4.26,0,0,1,.9-1.48,3.9,3.9,0,0,1,1.38-1,4.62,4.62,0,0,1,3.48,0,3.9,3.9,0,0,1,1.38,1,4.26,4.26,0,0,1,.9,1.48A5.23,5.23,0,0,1,474.24,64.59Zm-.54,0a4.77,4.77,0,0,0-.49-2.19A3.62,3.62,0,0,0,471.87,61a4,4,0,0,0-3.93,0,3.57,3.57,0,0,0-1.35,1.45,4.77,4.77,0,0,0-.49,2.19,4.7,4.7,0,0,0,.49,2.18,3.6,3.6,0,0,0,1.35,1.46,4,4,0,0,0,3.93,0,3.64,3.64,0,0,0,1.34-1.46A4.7,4.7,0,0,0,473.7,64.59Z"/><path class="cls-4" d="M482.93,60.79A.22.22,0,0,1,483,61a.26.26,0,0,1-.05.2.23.23,0,0,1-.16.1.32.32,0,0,1-.19-.05,4.92,4.92,0,0,0-1.19-.6,4.42,4.42,0,0,0-1.37-.22,3.8,3.8,0,0,0-1.55.31,3.71,3.71,0,0,0-1.27.86,4,4,0,0,0-.86,1.33,4.76,4.76,0,0,0,0,3.38,4,4,0,0,0,.86,1.32,3.74,3.74,0,0,0,1.27.87,4,4,0,0,0,1.55.3,4,4,0,0,0,1.36-.22,5,5,0,0,0,1.19-.58.22.22,0,0,1,.19,0,.21.21,0,0,1,.17.1.23.23,0,0,1,.05.19.21.21,0,0,1-.1.17,4.38,4.38,0,0,1-.79.43,5.2,5.2,0,0,1-1,.33,4.27,4.27,0,0,1-1.06.13,4.53,4.53,0,0,1-1.76-.35,4.83,4.83,0,0,1-2.42-6.2,4.56,4.56,0,0,1,2.42-2.46,4.36,4.36,0,0,1,1.76-.35,5.2,5.2,0,0,1,1.53.23A4.78,4.78,0,0,1,482.93,60.79Z"/><path class="cls-4" d="M485.34,68.86a.34.34,0,0,1-.09.2.25.25,0,0,1-.18.08.26.26,0,0,1-.2-.08.27.27,0,0,1-.07-.2V60.31a.27.27,0,0,1,.27-.27.26.26,0,0,1,.2.08.25.25,0,0,1,.07.19Z"/><path class="cls-4" d="M490.89,60.7,487.61,69a.23.23,0,0,1-.1.12.24.24,0,0,1-.14,0,.24.24,0,0,1-.19-.07.22.22,0,0,1-.08-.15.2.2,0,0,1,0-.13l3.5-8.61a.26.26,0,0,1,.1-.14.28.28,0,0,1,.15,0,.28.28,0,0,1,.16.05.23.23,0,0,1,.1.12l3.49,8.61a.25.25,0,0,1,0,.1.22.22,0,0,1-.08.18.29.29,0,0,1-.2.07.3.3,0,0,1-.16,0,.23.23,0,0,1-.1-.12L490.7,60.6Zm-2.4,5.62.18-.52h4.21l.13.52Z"/><path class="cls-4" d="M495.14,60.53a.27.27,0,0,1-.18-.07.25.25,0,0,1-.08-.17.25.25,0,0,1,.08-.18.27.27,0,0,1,.18-.07h6.32a.24.24,0,0,1,.18.07.24.24,0,0,1,0,.36.28.28,0,0,1-.18.06Zm3.16,8.61a.23.23,0,0,1-.18-.08.25.25,0,0,1-.08-.18V60.35h.52v8.53a.24.24,0,0,1-.07.18A.29.29,0,0,1,498.3,69.14Z"/><path class="cls-4" d="M504,68.86a.29.29,0,0,1-.09.2.25.25,0,0,1-.18.08.26.26,0,0,1-.2-.08.27.27,0,0,1-.07-.2V60.31a.27.27,0,0,1,.27-.27.26.26,0,0,1,.2.08.25.25,0,0,1,.07.19Z"/><path class="cls-4" d="M514.66,64.59a5.53,5.53,0,0,1-.32,1.9,4.36,4.36,0,0,1-.9,1.48,4.18,4.18,0,0,1-1.38,1,4.65,4.65,0,0,1-3.49,0,4.24,4.24,0,0,1-1.37-1,4.54,4.54,0,0,1-.91-1.48,5.53,5.53,0,0,1-.32-1.9,5.45,5.45,0,0,1,.32-1.9,4.44,4.44,0,0,1,.91-1.48,4,4,0,0,1,1.37-1,4.65,4.65,0,0,1,3.49,0,3.9,3.9,0,0,1,1.38,1,4.26,4.26,0,0,1,.9,1.48A5.45,5.45,0,0,1,514.66,64.59Zm-.55,0a4.77,4.77,0,0,0-.48-2.19A3.84,3.84,0,0,0,508.35,61,3.55,3.55,0,0,0,507,62.4a4.65,4.65,0,0,0-.49,2.19,4.58,4.58,0,0,0,.49,2.18,3.57,3.57,0,0,0,1.34,1.46,4,4,0,0,0,3.94,0,3.71,3.71,0,0,0,1.34-1.46A4.7,4.7,0,0,0,514.11,64.59Z"/><path class="cls-4" d="M523.19,60a.24.24,0,0,1,.18.07.28.28,0,0,1,.06.18v8.56a.29.29,0,0,1-.08.22.34.34,0,0,1-.19.07l-.11,0A.25.25,0,0,1,523,69l-6-8.24.18-.09v8.22a.18.18,0,0,1-.07.15.23.23,0,0,1-.17.07.25.25,0,0,1-.19-.07.2.2,0,0,1-.06-.15V60.3c0-.1,0-.17.08-.2a.24.24,0,0,1,.15-.06.22.22,0,0,1,.11,0,.18.18,0,0,1,.09.07l6,8.19-.1.26V60.29a.22.22,0,0,1,.08-.18A.23.23,0,0,1,523.19,60Z"/><path class="cls-4" d="M529.82,69.14a.26.26,0,0,1-.28-.26V60.3a.25.25,0,0,1,.08-.18.22.22,0,0,1,.18-.08h3.43a2.86,2.86,0,0,1,1.35.3,2.35,2.35,0,0,1,.9.84,2.27,2.27,0,0,1,.33,1.21,2.51,2.51,0,0,1-.22,1.08,2.17,2.17,0,0,1-.59.8,2.39,2.39,0,0,1-.88.46l-.6-.1a2,2,0,0,1,1,.26,2.13,2.13,0,0,1,.77.78,2.58,2.58,0,0,1,.29,1.26,6,6,0,0,0,.06,1,1.27,1.27,0,0,0,.16.48.7.7,0,0,0,.23.25.33.33,0,0,1,.11.13.27.27,0,0,1,0,.18.25.25,0,0,1-.09.13.34.34,0,0,1-.12.06.29.29,0,0,1-.15,0,1.24,1.24,0,0,1-.35-.31,1.53,1.53,0,0,1-.29-.64,4.78,4.78,0,0,1-.12-1.22,2.25,2.25,0,0,0-.19-1,1.57,1.57,0,0,0-.48-.56,1.83,1.83,0,0,0-.63-.26,3.38,3.38,0,0,0-.6-.06H530l.12-.16v4a.25.25,0,0,1-.08.18A.27.27,0,0,1,529.82,69.14Zm.14-4.59h3.34a2.41,2.41,0,0,0,1-.31,2,2,0,0,0,.72-.73,2.08,2.08,0,0,0,.28-1.11,1.78,1.78,0,0,0-.56-1.32,2.17,2.17,0,0,0-1.53-.52H530l.07-.09v4.22Z"/><path class="cls-4" d="M538.43,60h4.91a.24.24,0,0,1,.18.08.25.25,0,0,1,.08.18.26.26,0,0,1-.08.19.34.34,0,0,1-.18.07h-4.75l.13-.22v4l-.16-.19h4.19a.25.25,0,0,1,.18.08.27.27,0,0,1,.08.18.24.24,0,0,1-.08.19.25.25,0,0,1-.18.08h-4.16l.13-.15v4.12l-.05-.06h4.67a.24.24,0,0,1,.18.08.25.25,0,0,1,.08.18.26.26,0,0,1-.08.19.34.34,0,0,1-.18.07h-4.91a.27.27,0,0,1-.18-.08.25.25,0,0,1-.08-.18V60.3a.25.25,0,0,1,.08-.18A.23.23,0,0,1,538.43,60Zm2.68-.63c-.06,0-.1,0-.12,0a.19.19,0,0,1,0-.1.18.18,0,0,1,0-.11l.08-.09,1.17-.87.13-.07a.38.38,0,0,1,.16,0,.26.26,0,0,1,.23.1.38.38,0,0,1,.07.21.36.36,0,0,1-.05.19.3.3,0,0,1-.13.12l-1.27.61-.12.06A.4.4,0,0,1,541.11,59.41Z"/><path class="cls-4" d="M549.56,69.27a4.89,4.89,0,0,1-1.86-.35,4.3,4.3,0,0,1-2.46-2.46,5.31,5.31,0,0,1,0-3.74,4.32,4.32,0,0,1,1-1.49,4.44,4.44,0,0,1,1.49-1,4.89,4.89,0,0,1,1.86-.34,5.67,5.67,0,0,1,1.38.17,4,4,0,0,1,1.18.53.17.17,0,0,1,.09.1.27.27,0,0,1,0,.12.24.24,0,0,1-.09.2.29.29,0,0,1-.16.06l-.09,0-.08,0a4.94,4.94,0,0,0-1.05-.44,4,4,0,0,0-1.21-.17,4.2,4.2,0,0,0-2.14.54A3.86,3.86,0,0,0,546,62.44a4.63,4.63,0,0,0,0,4.3,3.73,3.73,0,0,0,1.45,1.47,4.2,4.2,0,0,0,2.14.54,4.28,4.28,0,0,0,1.28-.2A4.64,4.64,0,0,0,552,68l-.06.23V65l.18.17h-2.52a.22.22,0,0,1-.18-.08.25.25,0,0,1-.08-.18.26.26,0,0,1,.08-.19.29.29,0,0,1,.18-.07h2.6a.26.26,0,0,1,.19.08.24.24,0,0,1,.07.18v3.27a.52.52,0,0,1,0,.11.23.23,0,0,1-.1.12A4.84,4.84,0,0,1,551,69,4.62,4.62,0,0,1,549.56,69.27Z"/><path class="cls-4" d="M555.11,68.86a.34.34,0,0,1-.09.2.25.25,0,0,1-.18.08.26.26,0,0,1-.2-.08.27.27,0,0,1-.07-.2V60.31a.25.25,0,0,1,.07-.19.29.29,0,0,1,.4,0,.25.25,0,0,1,.07.19Z"/><path class="cls-4" d="M565.75,64.59a5.53,5.53,0,0,1-.32,1.9,4.36,4.36,0,0,1-.9,1.48,4.19,4.19,0,0,1-3.12,1.3,4.34,4.34,0,0,1-1.75-.34,4.14,4.14,0,0,1-1.37-1,4.38,4.38,0,0,1-.91-1.48,5.53,5.53,0,0,1-.32-1.9,5.45,5.45,0,0,1,.32-1.9,4.29,4.29,0,0,1,.91-1.48,3.87,3.87,0,0,1,1.37-1,4.65,4.65,0,0,1,3.49,0,4,4,0,0,1,1.38,1,4.26,4.26,0,0,1,.9,1.48A5.45,5.45,0,0,1,565.75,64.59Zm-.55,0a4.65,4.65,0,0,0-.49-2.19A3.59,3.59,0,0,0,563.38,61a4,4,0,0,0-3.94,0,3.55,3.55,0,0,0-1.34,1.45,4.65,4.65,0,0,0-.49,2.19,4.58,4.58,0,0,0,.49,2.18,3.57,3.57,0,0,0,1.34,1.46,4,4,0,0,0,3.94,0,3.62,3.62,0,0,0,1.33-1.46A4.58,4.58,0,0,0,565.2,64.59Z"/><path class="cls-4" d="M574.28,60a.24.24,0,0,1,.18.07.28.28,0,0,1,.06.18v8.56a.29.29,0,0,1-.08.22.34.34,0,0,1-.19.07.23.23,0,0,1-.11,0A.25.25,0,0,1,574,69l-6-8.24.18-.09v8.22a.18.18,0,0,1-.07.15.24.24,0,0,1-.18.07.23.23,0,0,1-.18-.07.2.2,0,0,1-.06-.15V60.3c0-.1,0-.17.08-.2a.24.24,0,0,1,.15-.06.23.23,0,0,1,.11,0,.18.18,0,0,1,.09.07l6,8.19-.1.26V60.29a.26.26,0,0,1,.25-.25Z"/><path class="cls-4" d="M580.07,60.7,576.78,69a.18.18,0,0,1-.09.12.24.24,0,0,1-.14,0,.26.26,0,0,1-.27-.22.2.2,0,0,1,0-.13l3.5-8.61a.31.31,0,0,1,.09-.14.33.33,0,0,1,.15,0,.29.29,0,0,1,.17.05.18.18,0,0,1,.09.12l3.5,8.61a.28.28,0,0,1,0,.1.21.21,0,0,1-.07.18.29.29,0,0,1-.2.07.3.3,0,0,1-.16,0,.23.23,0,0,1-.1-.12l-3.39-8.37Zm-2.4,5.62.18-.52h4.21l.13.52Z"/><path class="cls-4" d="M590.59,68.62a.22.22,0,0,1,.18.08.25.25,0,0,1,.08.18.26.26,0,0,1-.08.19.29.29,0,0,1-.18.07h-4.77a.26.26,0,0,1-.19-.08.24.24,0,0,1-.07-.18V60.3a.22.22,0,0,1,.08-.18.22.22,0,0,1,.19-.08.26.26,0,0,1,.2.08.24.24,0,0,1,.07.18v8.55l-.23-.23Z"/><path class="cls-4" d="M592.6,60h4.91a.24.24,0,0,1,.18.08.25.25,0,0,1,.08.18.26.26,0,0,1-.08.19.34.34,0,0,1-.18.07h-4.75l.13-.22v4l-.16-.19h4.19a.25.25,0,0,1,.18.08.27.27,0,0,1,.08.18.24.24,0,0,1-.08.19.25.25,0,0,1-.18.08h-4.16l.13-.15v4.12l0-.06h4.67a.24.24,0,0,1,.18.08.25.25,0,0,1,.08.18.26.26,0,0,1-.08.19.34.34,0,0,1-.18.07H592.6a.27.27,0,0,1-.18-.08.25.25,0,0,1-.08-.18V60.3a.25.25,0,0,1,.08-.18A.23.23,0,0,1,592.6,60Z"/><path class="cls-4" d="M606.87,60a3.53,3.53,0,0,1,1.68.37,3.3,3.3,0,0,1,1.18,1,4.35,4.35,0,0,1,.68,1.46,6.82,6.82,0,0,1-.17,4A3.68,3.68,0,0,1,609,68.52a3.5,3.5,0,0,1-2.14.62h-3.39a.29.29,0,0,1-.18-.08.25.25,0,0,1-.08-.18V60.3a.25.25,0,0,1,.08-.18.24.24,0,0,1,.18-.08Zm-.14,8.58a3.21,3.21,0,0,0,1.94-.54,3.06,3.06,0,0,0,1.07-1.46,5.73,5.73,0,0,0,.35-2,5.81,5.81,0,0,0-.19-1.52,3.76,3.76,0,0,0-.59-1.3,3,3,0,0,0-1-.89,3.47,3.47,0,0,0-1.54-.32h-3l.08-.11v8.28l-.08-.11Z"/><path class="cls-4" d="M619,60a.22.22,0,0,1,.19.08.24.24,0,0,1,.07.18v5.61a3.18,3.18,0,0,1-.46,1.69,3.48,3.48,0,0,1-1.2,1.21,3.17,3.17,0,0,1-1.68.46,3.12,3.12,0,0,1-1.68-.46A3.45,3.45,0,0,1,613,67.6a3.27,3.27,0,0,1-.46-1.69V60.3a.25.25,0,0,1,.08-.18.22.22,0,0,1,.2-.08.22.22,0,0,1,.19.08.22.22,0,0,1,.08.18v5.61a2.81,2.81,0,0,0,.38,1.43,2.77,2.77,0,0,0,1,1,2.76,2.76,0,0,0,2.83,0,2.93,2.93,0,0,0,1-1,2.81,2.81,0,0,0,.38-1.43V60.3a.24.24,0,0,1,.07-.18A.22.22,0,0,1,619,60Z"/><path class="cls-4" d="M445.85,84.87a3.86,3.86,0,0,1-1.74-.34,5.29,5.29,0,0,1-1.41-1l-.05-.07a.37.37,0,0,1,0-.12.28.28,0,0,1,.09-.2.24.24,0,0,1,.19-.1.29.29,0,0,1,.22.12,3.72,3.72,0,0,0,1.22.91,3.63,3.63,0,0,0,1.45.31,3,3,0,0,0,1.18-.22,1.83,1.83,0,0,0,.82-.61,1.48,1.48,0,0,0,.3-.93,1.61,1.61,0,0,0-.36-1.06,2.87,2.87,0,0,0-.91-.67c-.37-.17-.75-.33-1.16-.48s-.64-.24-.95-.38a3.7,3.7,0,0,1-.85-.47,2,2,0,0,1-.59-.7,2.21,2.21,0,0,1-.22-1,2,2,0,0,1,.34-1.15,2.46,2.46,0,0,1,1-.82,3.6,3.6,0,0,1,1.53-.3,4.21,4.21,0,0,1,1.44.26,2.46,2.46,0,0,1,1.1.8.55.55,0,0,1,.13.28.26.26,0,0,1-.09.18.33.33,0,0,1-.22.09.23.23,0,0,1-.17-.08,2.22,2.22,0,0,0-.56-.54,2.59,2.59,0,0,0-.75-.35,3.17,3.17,0,0,0-.88-.12,3,3,0,0,0-1.16.21,1.83,1.83,0,0,0-.83.59,1.43,1.43,0,0,0-.32.94,1.4,1.4,0,0,0,.35,1,2.67,2.67,0,0,0,.88.64c.35.17.72.32,1.09.46s.65.24,1,.37a3.79,3.79,0,0,1,.88.5,2.08,2.08,0,0,1,.63.75,2.48,2.48,0,0,1,.24,1.15,1.89,1.89,0,0,1-.35,1.1,2.5,2.5,0,0,1-1,.82A3.46,3.46,0,0,1,445.85,84.87Z"/><path class="cls-4" d="M455.72,75.58a.23.23,0,0,1,.19.1.25.25,0,0,1,.07.15.2.2,0,0,1,0,.09.19.19,0,0,1,0,.08l-3.09,4.19.12-.38v4.67a.22.22,0,0,1-.08.18.26.26,0,0,1-.19.08.25.25,0,0,1-.2-.08.24.24,0,0,1-.07-.18V79.9l.06.27-3-4.17a.2.2,0,0,1,0-.08.22.22,0,0,1,0-.09.2.2,0,0,1,.09-.17.29.29,0,0,1,.18-.08.25.25,0,0,1,.22.12l2.89,3.94-.13,0,2.86-3.92A.24.24,0,0,1,455.72,75.58Z"/><path class="cls-4" d="M459.59,84.87a3.89,3.89,0,0,1-1.74-.34,5.25,5.25,0,0,1-1.4-1,.22.22,0,0,1-.06-.07.37.37,0,0,1,0-.12.28.28,0,0,1,.09-.2.24.24,0,0,1,.19-.1.28.28,0,0,1,.22.12,3.72,3.72,0,0,0,1.22.91,3.63,3.63,0,0,0,1.45.31,2.92,2.92,0,0,0,1.18-.22,1.83,1.83,0,0,0,.82-.61,1.48,1.48,0,0,0,.3-.93,1.61,1.61,0,0,0-.36-1.06,2.87,2.87,0,0,0-.91-.67c-.37-.17-.75-.33-1.16-.48s-.64-.24-1-.38a3.43,3.43,0,0,1-.84-.47,1.92,1.92,0,0,1-.6-.7,2.21,2.21,0,0,1-.22-1,2,2,0,0,1,.34-1.15,2.46,2.46,0,0,1,1-.82,3.6,3.6,0,0,1,1.53-.3,4.21,4.21,0,0,1,1.44.26,2.41,2.41,0,0,1,1.1.8.55.55,0,0,1,.13.28.26.26,0,0,1-.09.18.33.33,0,0,1-.22.09.23.23,0,0,1-.17-.08,2.22,2.22,0,0,0-.56-.54,2.59,2.59,0,0,0-.75-.35,3.17,3.17,0,0,0-.88-.12,3.07,3.07,0,0,0-1.16.21,1.88,1.88,0,0,0-.83.59,1.42,1.42,0,0,0-.31.94,1.39,1.39,0,0,0,.34,1,2.67,2.67,0,0,0,.88.64c.35.17.72.32,1.09.46s.66.24,1,.37a3.59,3.59,0,0,1,.88.5,2.21,2.21,0,0,1,.64.75,2.62,2.62,0,0,1,.23,1.15,2,2,0,0,1-.34,1.1,2.53,2.53,0,0,1-1,.82A3.46,3.46,0,0,1,459.59,84.87Z"/><path class="cls-4" d="M463.78,76.13a.24.24,0,0,1-.18-.07.22.22,0,0,1-.08-.18.21.21,0,0,1,.08-.17.24.24,0,0,1,.18-.07h6.32a.26.26,0,0,1,.18.07.23.23,0,0,1,.07.17.25.25,0,0,1-.07.19.3.3,0,0,1-.18.06Zm3.16,8.61a.26.26,0,0,1-.19-.08.24.24,0,0,1-.07-.18V76h.52v8.53a.27.27,0,0,1-.26.26Z"/><path class="cls-4" d="M472.37,75.64h4.9a.24.24,0,0,1,.18.07.25.25,0,0,1,.08.19.22.22,0,0,1-.08.19.29.29,0,0,1-.18.07h-4.74l.13-.22v4l-.16-.19h4.19A.27.27,0,0,1,477,80a.26.26,0,0,1-.26.26h-4.16l.13-.14v4.12l-.06-.06h4.67a.24.24,0,0,1,.18.07.25.25,0,0,1,.08.19.22.22,0,0,1-.08.19.29.29,0,0,1-.18.07h-4.9a.27.27,0,0,1-.26-.26V75.9a.29.29,0,0,1,.08-.19A.24.24,0,0,1,472.37,75.64ZM475,75a.37.37,0,0,1-.15,0l-.13-.06-1.26-.61a.33.33,0,0,1-.18-.31.31.31,0,0,1,.07-.21.26.26,0,0,1,.23-.1.41.41,0,0,1,.16,0l.12.07,1.17.87a.38.38,0,0,1,.09.09.18.18,0,0,1,0,.11.19.19,0,0,1,0,.1S475.06,75,475,75Z"/><path class="cls-4" d="M479.73,75.64l.13,0a.31.31,0,0,1,.11.09l3.74,5.56h-.26l3.73-5.56a.23.23,0,0,1,.24-.11.25.25,0,0,1,.17.08.24.24,0,0,1,.07.18v8.58a.23.23,0,0,1-.09.18.26.26,0,0,1-.19.08.27.27,0,0,1-.19-.08.25.25,0,0,1-.08-.18v-8h.15l-3.5,5.29a.19.19,0,0,1-.07.08.2.2,0,0,1-.11,0,.28.28,0,0,1-.13,0s-.07,0-.08-.08l-3.58-5.39H480v8.1a.27.27,0,0,1-.26.26.26.26,0,0,1-.19-.08.29.29,0,0,1-.07-.18V75.9a.27.27,0,0,1,.07-.18A.22.22,0,0,1,479.73,75.64Z"/><path class="cls-4" d="M490.52,75.64h4.9a.24.24,0,0,1,.18.07.29.29,0,0,1,.08.19.26.26,0,0,1-.08.19.29.29,0,0,1-.18.07h-4.75l.13-.22v4l-.15-.19h4.18a.29.29,0,0,1,.19.08.24.24,0,0,1,.07.18.24.24,0,0,1-.07.19.28.28,0,0,1-.19.07h-4.16l.13-.14v4.12l-.05-.06h4.67a.24.24,0,0,1,.18.07.29.29,0,0,1,.08.19.26.26,0,0,1-.08.19.29.29,0,0,1-.18.07h-4.9a.25.25,0,0,1-.18-.08.22.22,0,0,1-.08-.18V75.9a.25.25,0,0,1,.08-.19A.24.24,0,0,1,490.52,75.64Z"/><path class="cls-4" d="M501.68,84.46a.29.29,0,0,1-.09.2.25.25,0,0,1-.18.08.26.26,0,0,1-.2-.08.27.27,0,0,1-.07-.2V75.91a.26.26,0,0,1,.08-.2.25.25,0,0,1,.19-.07.24.24,0,0,1,.27.27Z"/><path class="cls-4" d="M510.86,75.64a.21.21,0,0,1,.18.07.23.23,0,0,1,.07.17v8.57a.27.27,0,0,1-.09.22.31.31,0,0,1-.18.07.27.27,0,0,1-.12,0,.23.23,0,0,1-.09-.08l-6-8.24.18-.09v8.22a.21.21,0,0,1-.07.15.24.24,0,0,1-.18.07.21.21,0,0,1-.18-.07.18.18,0,0,1-.07-.15V75.9a.22.22,0,0,1,.08-.2.27.27,0,0,1,.16-.06.18.18,0,0,1,.1,0,.13.13,0,0,1,.09.07l6,8.19-.1.26v-8.3a.24.24,0,0,1,.24-.24Z"/><path class="cls-4" d="M513.13,76.13a.25.25,0,0,1-.19-.07.24.24,0,0,1-.07-.18.23.23,0,0,1,.07-.17.25.25,0,0,1,.19-.07h6.31a.28.28,0,0,1,.19.07.23.23,0,0,1,.07.17.25.25,0,0,1-.07.19.33.33,0,0,1-.19.06Zm3.15,8.61a.23.23,0,0,1-.18-.08.25.25,0,0,1-.08-.18V76h.52v8.53a.22.22,0,0,1-.08.18A.25.25,0,0,1,516.28,84.74Z"/><path class="cls-4" d="M521.72,75.64h4.9a.24.24,0,0,1,.18.07.29.29,0,0,1,.08.19.26.26,0,0,1-.08.19.29.29,0,0,1-.18.07h-4.75l.13-.22v4l-.15-.19H526a.25.25,0,0,1,.18.08.22.22,0,0,1,.08.18.21.21,0,0,1-.08.19.24.24,0,0,1-.18.07h-4.16l.13-.14v4.12l0-.06h4.67a.24.24,0,0,1,.18.07.29.29,0,0,1,.08.19.26.26,0,0,1-.08.19.29.29,0,0,1-.18.07h-4.9a.25.25,0,0,1-.18-.08.22.22,0,0,1-.08-.18V75.9a.25.25,0,0,1,.08-.19A.24.24,0,0,1,521.72,75.64Zm2.67-.63c-.06,0-.1,0-.12-.05a.19.19,0,0,1,0-.1.18.18,0,0,1,0-.11.38.38,0,0,1,.09-.09l1.17-.87.12-.07a.41.41,0,0,1,.16,0,.25.25,0,0,1,.23.1.31.31,0,0,1,.07.21.29.29,0,0,1-.05.19.26.26,0,0,1-.13.12l-1.26.61-.13.06A.33.33,0,0,1,524.39,75Z"/><path class="cls-4" d="M532.85,84.87a4.94,4.94,0,0,1-1.87-.35,4.37,4.37,0,0,1-1.48-1,4.44,4.44,0,0,1-1-1.49,5.31,5.31,0,0,1,0-3.74,4.34,4.34,0,0,1,1-1.49,4.4,4.4,0,0,1,1.48-1,4.94,4.94,0,0,1,1.87-.34,5.65,5.65,0,0,1,1.37.17,4.15,4.15,0,0,1,1.19.53.28.28,0,0,1,.09.1.5.5,0,0,1,0,.12.24.24,0,0,1-.09.2.29.29,0,0,1-.15.06l-.09,0-.08,0a4.81,4.81,0,0,0-1.06-.44,4,4,0,0,0-1.2-.17,4.17,4.17,0,0,0-2.14.54A3.89,3.89,0,0,0,529.25,78a4.63,4.63,0,0,0,0,4.3,3.75,3.75,0,0,0,1.46,1.47,4.17,4.17,0,0,0,2.14.54,4.33,4.33,0,0,0,1.28-.2,4.56,4.56,0,0,0,1.11-.53l0,.23V80.6l.18.17h-2.52a.24.24,0,0,1-.19-.08.25.25,0,0,1-.08-.18.26.26,0,0,1,.08-.19.32.32,0,0,1,.19-.07h2.6a.23.23,0,0,1,.18.08.25.25,0,0,1,.08.18v3.27a.26.26,0,0,1,0,.11.34.34,0,0,1-.09.12,4.9,4.9,0,0,1-1.28.62A4.56,4.56,0,0,1,532.85,84.87Z"/><path class="cls-4" d="M538.12,84.74a.28.28,0,0,1-.2-.08.24.24,0,0,1-.07-.18V75.9a.29.29,0,0,1,.08-.19.24.24,0,0,1,.18-.07h3.43a2.92,2.92,0,0,1,1.35.3,2.43,2.43,0,0,1,.9.84,2.27,2.27,0,0,1,.33,1.21,2.67,2.67,0,0,1-.22,1.08,2.09,2.09,0,0,1-.6.8,2.35,2.35,0,0,1-.87.46l-.6-.1a2,2,0,0,1,1,.26,2.06,2.06,0,0,1,.77.78,2.47,2.47,0,0,1,.3,1.26,6,6,0,0,0,.06,1,1.27,1.27,0,0,0,.16.48.78.78,0,0,0,.22.25.3.3,0,0,1,.12.13.28.28,0,0,1-.07.31.21.21,0,0,1-.12,0,.26.26,0,0,1-.15,0,1.42,1.42,0,0,1-.36-.31,1.83,1.83,0,0,1-.29-.64,5.39,5.39,0,0,1-.11-1.22,2.21,2.21,0,0,0-.19-1,1.57,1.57,0,0,0-.48-.56,1.91,1.91,0,0,0-.63-.26,3.38,3.38,0,0,0-.6-.06h-3.16l.11-.16v4a.24.24,0,0,1-.07.18A.28.28,0,0,1,538.12,84.74Zm.15-4.59h3.34a2.52,2.52,0,0,0,1-.31,2.19,2.19,0,0,0,.72-.73,2.08,2.08,0,0,0,.28-1.11,1.73,1.73,0,0,0-.57-1.32,2.13,2.13,0,0,0-1.52-.52h-3.15l.06-.09v4.22Z"/><path class="cls-4" d="M546.74,75.64h4.9a.24.24,0,0,1,.18.07.25.25,0,0,1,.08.19.22.22,0,0,1-.08.19.29.29,0,0,1-.18.07H546.9l.13-.22v4l-.16-.19h4.19a.27.27,0,0,1,.26.26.26.26,0,0,1-.26.26H546.9l.13-.14v4.12l-.06-.06h4.67a.24.24,0,0,1,.18.07.25.25,0,0,1,.08.19.22.22,0,0,1-.08.19.29.29,0,0,1-.18.07h-4.9a.27.27,0,0,1-.26-.26V75.9a.29.29,0,0,1,.08-.19A.24.24,0,0,1,546.74,75.64Zm2.68-.63a.14.14,0,0,1-.13-.05.19.19,0,0,1,0-.1.18.18,0,0,1,0-.11l.09-.09,1.17-.87.12-.07a.47.47,0,0,1,.17,0,.24.24,0,0,1,.22.1.31.31,0,0,1,.07.21.36.36,0,0,1,0,.19.33.33,0,0,1-.14.12l-1.26.61-.12.06A.4.4,0,0,1,549.42,75Z"/><path class="cls-4" d="M561,75.64a3.6,3.6,0,0,1,1.69.37,3.2,3.2,0,0,1,1.18,1,4.55,4.55,0,0,1,.68,1.46,6.82,6.82,0,0,1-.17,4,3.68,3.68,0,0,1-1.23,1.65,3.53,3.53,0,0,1-2.15.62h-3.38a.27.27,0,0,1-.26-.26V75.9a.29.29,0,0,1,.08-.19.24.24,0,0,1,.18-.07Zm-.13,8.58a3.18,3.18,0,0,0,1.93-.54,3.14,3.14,0,0,0,1.08-1.46,5.73,5.73,0,0,0,.35-2,6.27,6.27,0,0,0-.19-1.52,4.17,4.17,0,0,0-.59-1.3,3,3,0,0,0-1-.89,3.47,3.47,0,0,0-1.54-.32h-3l.08-.11v8.28l-.08-.11Z"/><path class="cls-4" d="M567.18,76.14a1.58,1.58,0,0,1-.11.58,1.64,1.64,0,0,1-.28.48,1.37,1.37,0,0,1-.37.32.78.78,0,0,1-.36.11.25.25,0,0,1-.16-.06.16.16,0,0,1-.07-.15c0-.12,0-.19.13-.2a.81.81,0,0,0,.32-.11.63.63,0,0,0,.28-.3.81.81,0,0,0,.1-.39.39.39,0,0,0-.06-.23.17.17,0,0,0-.16-.08.63.63,0,0,0-.19,0,.35.35,0,0,0-.15.08.31.31,0,0,1-.09-.14.41.41,0,0,1,0-.16.39.39,0,0,1,.1-.19.8.8,0,0,1,.21-.15.76.76,0,0,1,.27,0,.61.61,0,0,1,.43.17A.54.54,0,0,1,567.18,76.14Z"/><path class="cls-4" d="M576.93,80.19a5.43,5.43,0,0,1-.32,1.89,4.11,4.11,0,0,1-2.28,2.45,4.65,4.65,0,0,1-3.49,0,4.28,4.28,0,0,1-1.38-1,4.47,4.47,0,0,1-.9-1.49,5.77,5.77,0,0,1,0-3.79,4.42,4.42,0,0,1,.9-1.48,4,4,0,0,1,1.38-1,4.65,4.65,0,0,1,3.49,0,4,4,0,0,1,1.38,1,4.26,4.26,0,0,1,.9,1.48A5.45,5.45,0,0,1,576.93,80.19Zm-.55,0a4.65,4.65,0,0,0-.49-2.19,3.55,3.55,0,0,0-1.34-1.45,3.63,3.63,0,0,0-2-.52,3.69,3.69,0,0,0-2,.52A3.55,3.55,0,0,0,569.28,78a4.65,4.65,0,0,0-.49,2.19,4.58,4.58,0,0,0,.49,2.18,3.57,3.57,0,0,0,1.34,1.46,3.79,3.79,0,0,0,2,.52,3.72,3.72,0,0,0,2-.52,3.57,3.57,0,0,0,1.34-1.46A4.58,4.58,0,0,0,576.38,80.19Z"/><path class="cls-4" d="M582.63,75.64a2.31,2.31,0,0,1,1.67.6,2.12,2.12,0,0,1,.62,1.61,2.64,2.64,0,0,1-.21,1,2.26,2.26,0,0,1-.63.83,1.91,1.91,0,0,1-1,.37l-.09-.15a3,3,0,0,1,.95.15,2.15,2.15,0,0,1,1.28,1.18,2.65,2.65,0,0,1,.19,1,2.62,2.62,0,0,1-.21,1.09,2.17,2.17,0,0,1-.57.76,2.42,2.42,0,0,1-.85.46,3.42,3.42,0,0,1-1,.15h-3.58a.25.25,0,0,1-.18-.08.22.22,0,0,1-.08-.18V75.9a.25.25,0,0,1,.08-.19.24.24,0,0,1,.18-.07Zm-.06.52h-3.29l.14-.25V80l-.13-.22h3.28a1.87,1.87,0,0,0,1.29-.51,2,2,0,0,0,.52-1.47,1.64,1.64,0,0,0-.47-1.21A1.82,1.82,0,0,0,582.57,76.16Zm.09,4.18h-3.29l0-.07v4l-.06-.1h3.3a2.59,2.59,0,0,0,1.55-.46,1.73,1.73,0,0,0,.62-1.48,1.93,1.93,0,0,0-.29-1.1,1.72,1.72,0,0,0-.77-.64A3,3,0,0,0,582.66,80.34Z"/><path class="cls-4" d="M589.71,84.87a3.93,3.93,0,0,1-1.75-.34,5.41,5.41,0,0,1-1.4-1s0,0,0-.07a.21.21,0,0,1,0-.12.28.28,0,0,1,.09-.2.26.26,0,0,1,.2-.1.29.29,0,0,1,.22.12,3.52,3.52,0,0,0,2.66,1.22,3,3,0,0,0,1.19-.22,1.89,1.89,0,0,0,.82-.61,1.48,1.48,0,0,0,.3-.93,1.62,1.62,0,0,0-.37-1.06,2.83,2.83,0,0,0-.9-.67q-.56-.26-1.17-.48c-.32-.12-.63-.24-.95-.38a3.43,3.43,0,0,1-.84-.47,2.13,2.13,0,0,1-.6-.7,2.21,2.21,0,0,1-.22-1,2,2,0,0,1,.35-1.15,2.36,2.36,0,0,1,1-.82,3.6,3.6,0,0,1,1.53-.3,4.13,4.13,0,0,1,1.44.26,2.49,2.49,0,0,1,1.11.8.55.55,0,0,1,.13.28.24.24,0,0,1-.1.18.3.3,0,0,1-.21.09A.21.21,0,0,1,592,77a2.44,2.44,0,0,0-.57-.54,2.59,2.59,0,0,0-.75-.35,3.3,3.3,0,0,0-2,.09,1.94,1.94,0,0,0-.83.59,1.42,1.42,0,0,0-.31.94,1.39,1.39,0,0,0,.34,1,2.78,2.78,0,0,0,.88.64c.36.17.72.32,1.09.46s.66.24,1,.37a4,4,0,0,1,.88.5,2.3,2.3,0,0,1,.63.75,2.48,2.48,0,0,1,.23,1.15,1.88,1.88,0,0,1-.34,1.1,2.46,2.46,0,0,1-1,.82A3.38,3.38,0,0,1,589.71,84.87Z"/><path class="cls-4" d="M594.74,75.64h4.9a.24.24,0,0,1,.18.07.29.29,0,0,1,.08.19.26.26,0,0,1-.08.19.29.29,0,0,1-.18.07h-4.75l.13-.22v4l-.15-.19h4.18a.25.25,0,0,1,.18.08.22.22,0,0,1,.08.18.21.21,0,0,1-.08.19.24.24,0,0,1-.18.07h-4.16l.13-.14v4.12l0-.06h4.67a.24.24,0,0,1,.18.07.29.29,0,0,1,.08.19.26.26,0,0,1-.08.19.29.29,0,0,1-.18.07h-4.9a.29.29,0,0,1-.19-.08.24.24,0,0,1-.07-.18V75.9a.24.24,0,0,1,.26-.26Z"/><path class="cls-4" d="M602.12,84.74a.26.26,0,0,1-.2-.08.24.24,0,0,1-.07-.18V75.9a.25.25,0,0,1,.08-.19.24.24,0,0,1,.18-.07h3.43a2.85,2.85,0,0,1,1.34.3,2.38,2.38,0,0,1,.91.84,2.26,2.26,0,0,1,.32,1.21,2.67,2.67,0,0,1-.21,1.08,2.09,2.09,0,0,1-.6.8,2.39,2.39,0,0,1-.88.46l-.59-.1a2,2,0,0,1,1,.26,2.06,2.06,0,0,1,.77.78,2.47,2.47,0,0,1,.3,1.26,6,6,0,0,0,.06,1,1.51,1.51,0,0,0,.15.48.8.8,0,0,0,.23.25.37.37,0,0,1,.12.13.27.27,0,0,1,0,.18.29.29,0,0,1-.08.13.21.21,0,0,1-.13,0,.24.24,0,0,1-.14,0,1.42,1.42,0,0,1-.36-.31,1.83,1.83,0,0,1-.29-.64,4.78,4.78,0,0,1-.12-1.22,2.08,2.08,0,0,0-.19-1,1.39,1.39,0,0,0-.48-.56,1.78,1.78,0,0,0-.62-.26,3.38,3.38,0,0,0-.6-.06h-3.16l.11-.16v4a.22.22,0,0,1-.08.18A.26.26,0,0,1,602.12,84.74Zm.14-4.59h3.34a2.51,2.51,0,0,0,1-.31,2.07,2.07,0,0,0,1-1.84,1.73,1.73,0,0,0-.57-1.32,2.13,2.13,0,0,0-1.53-.52h-3.14l.06-.09v4.22Z"/><path class="cls-4" d="M616.85,75.64a.25.25,0,0,1,.19.06.22.22,0,0,1,.07.17.35.35,0,0,1,0,.13l-3.56,8.57a.4.4,0,0,1-.1.12.27.27,0,0,1-.15,0,.24.24,0,0,1-.14,0,.19.19,0,0,1-.1-.12L609.49,76l0-.06s0-.06,0-.1a.25.25,0,0,1,.08-.17.23.23,0,0,1,.17-.07.29.29,0,0,1,.28.21L613.37,84h-.16l3.39-8.16A.26.26,0,0,1,616.85,75.64Z"/><path class="cls-4" d="M621.37,76.3l-3.29,8.27a.18.18,0,0,1-.09.12.24.24,0,0,1-.14,0,.26.26,0,0,1-.27-.22.2.2,0,0,1,0-.13l3.5-8.61a.26.26,0,0,1,.1-.14.26.26,0,0,1,.14,0,.29.29,0,0,1,.17,0,.18.18,0,0,1,.09.12l3.5,8.61a.25.25,0,0,1,0,.1.22.22,0,0,1-.08.18.29.29,0,0,1-.2.07.3.3,0,0,1-.16,0,.23.23,0,0,1-.1-.12l-3.39-8.37ZM619,81.92l.18-.52h4.21l.13.52Z"/><path class="cls-4" d="M625.62,76.13a.24.24,0,0,1-.18-.07.25.25,0,0,1-.08-.18.25.25,0,0,1,.08-.17.24.24,0,0,1,.18-.07h6.32a.24.24,0,0,1,.18.07.21.21,0,0,1,.08.17.22.22,0,0,1-.08.19.28.28,0,0,1-.18.06Zm3.16,8.61a.27.27,0,0,1-.19-.08.29.29,0,0,1-.07-.18V76H629v8.53a.22.22,0,0,1-.08.18A.25.25,0,0,1,628.78,84.74Z"/><path class="cls-4" d="M634.5,84.46a.34.34,0,0,1-.09.2.25.25,0,0,1-.18.08.26.26,0,0,1-.2-.08.27.27,0,0,1-.07-.2V75.91a.26.26,0,0,1,.08-.2.29.29,0,0,1,.38,0,.26.26,0,0,1,.08.2Z"/><path class="cls-4" d="M645.14,80.19a5.43,5.43,0,0,1-.32,1.89,4.47,4.47,0,0,1-.9,1.49,4.18,4.18,0,0,1-1.38,1,4.65,4.65,0,0,1-3.49,0,4.14,4.14,0,0,1-1.37-1,4.33,4.33,0,0,1-.91-1.49,5.77,5.77,0,0,1,0-3.79,4.29,4.29,0,0,1,.91-1.48,3.87,3.87,0,0,1,1.37-1,4.65,4.65,0,0,1,3.49,0,3.9,3.9,0,0,1,1.38,1,4.42,4.42,0,0,1,.9,1.48A5.45,5.45,0,0,1,645.14,80.19Zm-.55,0A4.65,4.65,0,0,0,644.1,78a3.59,3.59,0,0,0-1.33-1.45,4,4,0,0,0-3.94,0A3.55,3.55,0,0,0,637.49,78a4.65,4.65,0,0,0-.49,2.19,4.58,4.58,0,0,0,.49,2.18,3.57,3.57,0,0,0,1.34,1.46,4,4,0,0,0,3.94,0,3.62,3.62,0,0,0,1.33-1.46A4.58,4.58,0,0,0,644.59,80.19Z"/><path class="cls-4" d="M653.66,75.64a.25.25,0,0,1,.19.07.27.27,0,0,1,.06.17v8.57a.29.29,0,0,1-.08.22.34.34,0,0,1-.19.07.23.23,0,0,1-.11,0,.25.25,0,0,1-.1-.08l-6-8.24.18-.09v8.22a.18.18,0,0,1-.07.15.27.27,0,0,1-.36,0,.2.2,0,0,1-.06-.15V75.9c0-.1,0-.17.07-.2a.29.29,0,0,1,.16-.06.16.16,0,0,1,.1,0,.17.17,0,0,1,.1.07l6,8.19-.1.26v-8.3a.26.26,0,0,1,.24-.24Z"/><path class="cls-4" d="M663.66,75.64a3.57,3.57,0,0,1,1.69.37,3.2,3.2,0,0,1,1.18,1,4.55,4.55,0,0,1,.68,1.46,6.82,6.82,0,0,1-.17,4,3.68,3.68,0,0,1-1.23,1.65,3.53,3.53,0,0,1-2.15.62h-3.38a.27.27,0,0,1-.26-.26V75.9a.29.29,0,0,1,.08-.19.24.24,0,0,1,.18-.07Zm-.13,8.58a3.18,3.18,0,0,0,1.93-.54,3.14,3.14,0,0,0,1.08-1.46,5.73,5.73,0,0,0,.34-2,6.27,6.27,0,0,0-.18-1.52,4.17,4.17,0,0,0-.59-1.3,2.94,2.94,0,0,0-1.05-.89,3.39,3.39,0,0,0-1.53-.32h-3l.08-.11v8.28l-.08-.11Z"/><path class="cls-4" d="M669.64,75.64h4.9a.24.24,0,0,1,.18.07.25.25,0,0,1,.08.19.22.22,0,0,1-.08.19.29.29,0,0,1-.18.07H669.8l.13-.22v4l-.16-.19H674a.27.27,0,0,1,.26.26.26.26,0,0,1-.26.26H669.8l.13-.14v4.12l0-.06h4.66a.24.24,0,0,1,.18.07.25.25,0,0,1,.08.19.22.22,0,0,1-.08.19.29.29,0,0,1-.18.07h-4.9a.27.27,0,0,1-.26-.26V75.9a.29.29,0,0,1,.08-.19A.24.24,0,0,1,669.64,75.64Z"/><path class="cls-4" d="M679.13,84.87a3.89,3.89,0,0,1-1.74-.34,5.45,5.45,0,0,1-1.41-1l-.05-.07a.37.37,0,0,1,0-.12.28.28,0,0,1,.09-.2.24.24,0,0,1,.19-.1.29.29,0,0,1,.22.12,3.72,3.72,0,0,0,1.22.91,3.63,3.63,0,0,0,1.45.31,3,3,0,0,0,1.18-.22,1.83,1.83,0,0,0,.82-.61,1.48,1.48,0,0,0,.3-.93,1.61,1.61,0,0,0-.36-1.06,2.87,2.87,0,0,0-.91-.67c-.37-.17-.75-.33-1.16-.48s-.64-.24-1-.38a3.7,3.7,0,0,1-.85-.47,2,2,0,0,1-.59-.7,2.21,2.21,0,0,1-.22-1,2,2,0,0,1,.34-1.15,2.46,2.46,0,0,1,1-.82,3.6,3.6,0,0,1,1.53-.3,4.21,4.21,0,0,1,1.44.26,2.46,2.46,0,0,1,1.1.8.55.55,0,0,1,.13.28.26.26,0,0,1-.09.18.33.33,0,0,1-.22.09.23.23,0,0,1-.17-.08,2.22,2.22,0,0,0-.56-.54,2.59,2.59,0,0,0-.75-.35,3.17,3.17,0,0,0-.88-.12,3,3,0,0,0-1.16.21,1.83,1.83,0,0,0-.83.59,1.43,1.43,0,0,0-.32.94,1.4,1.4,0,0,0,.35,1,2.67,2.67,0,0,0,.88.64c.35.17.72.32,1.09.46s.66.24,1,.37a3.59,3.59,0,0,1,.88.5,2.21,2.21,0,0,1,.64.75,2.62,2.62,0,0,1,.23,1.15,1.89,1.89,0,0,1-.35,1.1,2.43,2.43,0,0,1-1,.82A3.46,3.46,0,0,1,679.13,84.87Z"/><path class="cls-4" d="M695.45,80.19a5.43,5.43,0,0,1-.32,1.89,4.49,4.49,0,0,1-.91,1.49,4.14,4.14,0,0,1-1.37,1,4.65,4.65,0,0,1-3.49,0,4.18,4.18,0,0,1-1.38-1,4.31,4.31,0,0,1-.9-1.49,5.77,5.77,0,0,1,0-3.79,4.26,4.26,0,0,1,.9-1.48,3.9,3.9,0,0,1,1.38-1,4.65,4.65,0,0,1,3.49,0,3.87,3.87,0,0,1,1.37,1,4.44,4.44,0,0,1,.91,1.48A5.45,5.45,0,0,1,695.45,80.19Zm-.55,0a4.65,4.65,0,0,0-.49-2.19,3.55,3.55,0,0,0-1.34-1.45,3.64,3.64,0,0,0-2-.52,3.68,3.68,0,0,0-2,.52A3.64,3.64,0,0,0,687.79,78a4.77,4.77,0,0,0-.48,2.19,4.7,4.7,0,0,0,.48,2.18,3.67,3.67,0,0,0,1.35,1.46,3.77,3.77,0,0,0,2,.52,3.73,3.73,0,0,0,2-.52,3.57,3.57,0,0,0,1.34-1.46A4.58,4.58,0,0,0,694.9,80.19Z"/><path class="cls-4" d="M704.13,76.39a.27.27,0,0,1,.12.18.33.33,0,0,1-.06.2.21.21,0,0,1-.16.1.34.34,0,0,1-.19-.05,4.92,4.92,0,0,0-1.19-.6,4.37,4.37,0,0,0-1.37-.22,3.83,3.83,0,0,0-1.55.31,3.91,3.91,0,0,0-1.27.86,4.18,4.18,0,0,0-.86,1.33,4.76,4.76,0,0,0,0,3.38,4.13,4.13,0,0,0,.86,1.32,3.94,3.94,0,0,0,1.27.87,4,4,0,0,0,1.55.3,4.1,4.1,0,0,0,1.37-.22,5.39,5.39,0,0,0,1.18-.58.24.24,0,0,1,.2,0,.2.2,0,0,1,.16.1.29.29,0,0,1,.06.19.25.25,0,0,1-.11.17,4.62,4.62,0,0,1-.78.43,5.68,5.68,0,0,1-1,.33,4.35,4.35,0,0,1-1.07.13,4.45,4.45,0,0,1-1.75-.35,4.64,4.64,0,0,1-1.45-1,4.88,4.88,0,0,1-1-1.49,4.71,4.71,0,0,1-.35-1.86,4.63,4.63,0,0,1,1.33-3.35,4.48,4.48,0,0,1,1.45-1,4.28,4.28,0,0,1,1.75-.35,4.89,4.89,0,0,1,1.53.23A4.78,4.78,0,0,1,704.13,76.39Z"/><path class="cls-4" d="M706.26,75.64h4.9a.24.24,0,0,1,.18.07.25.25,0,0,1,.08.19.22.22,0,0,1-.08.19.29.29,0,0,1-.18.07h-4.74l.13-.22v4l-.16-.19h4.19a.27.27,0,0,1,.26.26.26.26,0,0,1-.26.26h-4.16l.13-.14v4.12l0-.06h4.66a.24.24,0,0,1,.18.07.25.25,0,0,1,.08.19.22.22,0,0,1-.08.19.29.29,0,0,1-.18.07h-4.9a.27.27,0,0,1-.26-.26V75.9a.29.29,0,0,1,.08-.19A.24.24,0,0,1,706.26,75.64Zm2.68-.63c-.06,0-.1,0-.12-.05a.14.14,0,0,1,0-.1.14.14,0,0,1,0-.11l.08-.09,1.17-.87.12-.07a.47.47,0,0,1,.17,0,.24.24,0,0,1,.22.1.32.32,0,0,1,.08.21.36.36,0,0,1,0,.19.28.28,0,0,1-.14.12l-1.26.61-.12.06Z"/><path class="cls-4" d="M716.32,76.3,713,84.57a.23.23,0,0,1-.1.12.24.24,0,0,1-.14,0,.26.26,0,0,1-.27-.22.2.2,0,0,1,0-.13l3.5-8.61a.31.31,0,0,1,.09-.14.35.35,0,0,1,.16,0,.28.28,0,0,1,.16,0,.18.18,0,0,1,.09.12l3.5,8.61a.28.28,0,0,1,0,.1.21.21,0,0,1-.07.18.29.29,0,0,1-.2.07.3.3,0,0,1-.16,0,.23.23,0,0,1-.1-.12l-3.39-8.37Zm-2.4,5.62.18-.52h4.21l.13.52Z"/><path class="cls-4" d="M728.39,75.64a.23.23,0,0,1,.18.07.27.27,0,0,1,.06.17v8.57a.26.26,0,0,1-.08.22.34.34,0,0,1-.19.07l-.11,0a.25.25,0,0,1-.1-.08l-6-8.24.18-.09v8.22a.18.18,0,0,1-.07.15.22.22,0,0,1-.17.07.21.21,0,0,1-.18-.07.18.18,0,0,1-.07-.15V75.9a.22.22,0,0,1,.08-.2.24.24,0,0,1,.15-.06.22.22,0,0,1,.11,0,.18.18,0,0,1,.09.07l6,8.19-.1.26v-8.3a.25.25,0,0,1,.08-.17A.23.23,0,0,1,728.39,75.64Z"/><path class="cls-4" d="M733.61,84.87a3.92,3.92,0,0,1-1.74-.34,5.25,5.25,0,0,1-1.4-1,.13.13,0,0,1-.05-.07.21.21,0,0,1,0-.12.28.28,0,0,1,.09-.2.26.26,0,0,1,.2-.1.31.31,0,0,1,.22.12,3.58,3.58,0,0,0,1.21.91,3.63,3.63,0,0,0,1.45.31,2.92,2.92,0,0,0,1.18-.22,1.83,1.83,0,0,0,.82-.61,1.48,1.48,0,0,0,.3-.93,1.61,1.61,0,0,0-.36-1.06,2.87,2.87,0,0,0-.91-.67c-.36-.17-.75-.33-1.16-.48s-.64-.24-.95-.38a3.43,3.43,0,0,1-.84-.47,2,2,0,0,1-.6-.7,2.21,2.21,0,0,1-.22-1,2,2,0,0,1,.34-1.15,2.46,2.46,0,0,1,1-.82,3.6,3.6,0,0,1,1.53-.3,4.21,4.21,0,0,1,1.44.26,2.49,2.49,0,0,1,1.11.8.65.65,0,0,1,.13.28.28.28,0,0,1-.1.18.33.33,0,0,1-.22.09.19.19,0,0,1-.16-.08,2.44,2.44,0,0,0-.57-.54,2.59,2.59,0,0,0-.75-.35,3.12,3.12,0,0,0-.88-.12,3.07,3.07,0,0,0-1.16.21,1.88,1.88,0,0,0-.83.59,1.42,1.42,0,0,0-.31.94,1.39,1.39,0,0,0,.34,1,2.67,2.67,0,0,0,.88.64c.36.17.72.32,1.09.46s.66.24,1,.37a3.86,3.86,0,0,1,.89.5,2.3,2.3,0,0,1,.63.75,2.62,2.62,0,0,1,.23,1.15,1.88,1.88,0,0,1-.34,1.1,2.53,2.53,0,0,1-1,.82A3.46,3.46,0,0,1,733.61,84.87Z"/><path class="cls-4" d="M745.54,75.64a3.56,3.56,0,0,1,1.68.37,3.2,3.2,0,0,1,1.18,1,4.35,4.35,0,0,1,.68,1.46,6.82,6.82,0,0,1-.17,4,3.68,3.68,0,0,1-1.23,1.65,3.5,3.5,0,0,1-2.14.62h-3.39a.27.27,0,0,1-.26-.26V75.9a.29.29,0,0,1,.08-.19.24.24,0,0,1,.18-.07Zm-.14,8.58a2.94,2.94,0,0,0,3-2,5.73,5.73,0,0,0,.35-2,5.81,5.81,0,0,0-.19-1.52,4,4,0,0,0-.59-1.3,3,3,0,0,0-1-.89,3.47,3.47,0,0,0-1.54-.32h-3l.08-.11v8.28l-.08-.11Z"/><path class="cls-4" d="M757.69,75.64a.25.25,0,0,1,.19.07.34.34,0,0,1,.07.19v5.61a3.18,3.18,0,0,1-.46,1.69,3.48,3.48,0,0,1-1.2,1.21,3.32,3.32,0,0,1-3.37,0,3.5,3.5,0,0,1-1.21-1.21,3.18,3.18,0,0,1-.46-1.69V75.9a.34.34,0,0,1,.07-.19.28.28,0,0,1,.21-.07.25.25,0,0,1,.19.07.29.29,0,0,1,.08.19v5.61a2.81,2.81,0,0,0,.38,1.43,2.77,2.77,0,0,0,1,1A2.76,2.76,0,0,0,756,84a2.82,2.82,0,0,0,1-1,2.72,2.72,0,0,0,.39-1.43V75.9a.28.28,0,0,1,.07-.19A.25.25,0,0,1,757.69,75.64Z"/><path class="cls-4" d="M770.79,76.39a.27.27,0,0,1,.12.18.31.31,0,0,1,0,.2.26.26,0,0,1-.16.1.32.32,0,0,1-.19-.05,5.11,5.11,0,0,0-1.19-.6A4.42,4.42,0,0,0,768,76a3.85,3.85,0,0,0-1.56.31,3.77,3.77,0,0,0-1.26.86,3.86,3.86,0,0,0-.86,1.33,4.76,4.76,0,0,0,0,3.38,4,4,0,0,0,2.12,2.19,4,4,0,0,0,1.56.3,4.08,4.08,0,0,0,1.36-.22,5.39,5.39,0,0,0,1.18-.58.24.24,0,0,1,.2,0,.22.22,0,0,1,.17.1.27.27,0,0,1,0,.19.22.22,0,0,1-.11.17,4,4,0,0,1-.78.43,5.43,5.43,0,0,1-1,.33,4.27,4.27,0,0,1-1.06.13,4.44,4.44,0,0,1-3.2-1.33,4.54,4.54,0,0,1-1-1.49,4.71,4.71,0,0,1-.36-1.86,4.76,4.76,0,0,1,.36-1.87,4.4,4.4,0,0,1,1-1.48,4.44,4.44,0,0,1,3.2-1.33,4.87,4.87,0,0,1,1.52.23A4.78,4.78,0,0,1,770.79,76.39Z"/><path class="cls-4" d="M775.62,76.3l-3.29,8.27a.23.23,0,0,1-.1.12.24.24,0,0,1-.14,0,.24.24,0,0,1-.19-.07.22.22,0,0,1-.08-.15.2.2,0,0,1,0-.13l3.5-8.61a.32.32,0,0,1,.1-.14.31.31,0,0,1,.15,0,.28.28,0,0,1,.16,0,.23.23,0,0,1,.1.12l3.49,8.61a.25.25,0,0,1,0,.1.22.22,0,0,1-.08.18.29.29,0,0,1-.2.07.3.3,0,0,1-.16,0,.23.23,0,0,1-.1-.12l-3.39-8.37Zm-2.41,5.62.18-.52h4.21l.13.52Z"/><path class="cls-4" d="M787.68,75.64a.21.21,0,0,1,.18.07.28.28,0,0,1,.07.17v8.57a.27.27,0,0,1-.09.22.32.32,0,0,1-.19.07l-.11,0a.18.18,0,0,1-.09-.08l-6-8.24.19-.09v8.22a.19.19,0,0,1-.08.15.21.21,0,0,1-.17.07.21.21,0,0,1-.18-.07.18.18,0,0,1-.07-.15V75.9a.22.22,0,0,1,.08-.2.25.25,0,0,1,.16-.06.2.2,0,0,1,.1,0,.18.18,0,0,1,.09.07l6,8.19-.11.26v-8.3a.25.25,0,0,1,.08-.17A.23.23,0,0,1,787.68,75.64Z"/><path class="cls-4" d="M793.48,76.3l-3.29,8.27a.27.27,0,0,1-.09.12.27.27,0,0,1-.15,0,.24.24,0,0,1-.19-.07.22.22,0,0,1-.08-.15.3.3,0,0,1,0-.13l3.5-8.61a.32.32,0,0,1,.1-.14.33.33,0,0,1,.15,0,.31.31,0,0,1,.17,0,.27.27,0,0,1,.09.12l3.5,8.61s0,.06,0,.1a.22.22,0,0,1-.08.18.26.26,0,0,1-.19.07.34.34,0,0,1-.17,0,.18.18,0,0,1-.09-.12l-3.4-8.37Zm-2.41,5.62.18-.52h4.22l.13.52Z"/><path class="cls-4" d="M802.6,75.64a3.57,3.57,0,0,1,1.69.37,3.2,3.2,0,0,1,1.18,1,4.55,4.55,0,0,1,.68,1.46,6.82,6.82,0,0,1-.17,4,3.68,3.68,0,0,1-1.23,1.65,3.53,3.53,0,0,1-2.15.62h-3.38a.27.27,0,0,1-.26-.26V75.9a.29.29,0,0,1,.08-.19.24.24,0,0,1,.18-.07Zm-.13,8.58a3.18,3.18,0,0,0,1.93-.54,3.14,3.14,0,0,0,1.08-1.46,5.73,5.73,0,0,0,.35-2,6.27,6.27,0,0,0-.19-1.52,4.17,4.17,0,0,0-.59-1.3,3,3,0,0,0-1-.89,3.47,3.47,0,0,0-1.54-.32h-3l.08-.11v8.28l-.08-.11Z"/><path class="cls-4" d="M811.21,76.3l-3.29,8.27a.27.27,0,0,1-.09.12.24.24,0,0,1-.14,0,.24.24,0,0,1-.2-.07.28.28,0,0,1-.08-.15.21.21,0,0,1,0-.13l3.49-8.61a.32.32,0,0,1,.1-.14.33.33,0,0,1,.15,0,.31.31,0,0,1,.17,0,.27.27,0,0,1,.09.12l3.5,8.61a.28.28,0,0,1,0,.1.22.22,0,0,1-.08.18.26.26,0,0,1-.19.07.34.34,0,0,1-.17,0,.22.22,0,0,1-.09-.12L811,76.2Zm-2.41,5.62.19-.52h4.21l.13.52Z"/><path class="cls-3" d="M63.06,22.63a.83.83,0,0,1,.36.53.94.94,0,0,1-.16.6.64.64,0,0,1-.49.3,1,1,0,0,1-.56-.14,14.74,14.74,0,0,0-3.57-1.79,12.4,12.4,0,0,0-4.12-.67,11.88,11.88,0,0,0-4.66.92A11.51,11.51,0,0,0,46.06,25a12.23,12.23,0,0,0-2.57,4A13.19,13.19,0,0,0,42.55,34a13.19,13.19,0,0,0,.94,5.07,12.23,12.23,0,0,0,2.57,4,11.51,11.51,0,0,0,3.8,2.59,11.88,11.88,0,0,0,4.66.92,12.5,12.5,0,0,0,4.1-.66,15.88,15.88,0,0,0,3.55-1.76.82.82,0,0,1,.58-.16.71.71,0,0,1,.51.32.82.82,0,0,1,.16.58.74.74,0,0,1-.32.51,13.66,13.66,0,0,1-2.36,1.29,17.81,17.81,0,0,1-3,1,14,14,0,0,1-3.2.37A13.25,13.25,0,0,1,49.26,47a13.7,13.7,0,0,1-4.33-2.95,14,14,0,0,1-3-4.44,15.19,15.19,0,0,1,0-11.2,14,14,0,0,1,3-4.44A13.7,13.7,0,0,1,49.26,21,13.25,13.25,0,0,1,54.52,20a15,15,0,0,1,4.59.7A14.42,14.42,0,0,1,63.06,22.63Z"/><path class="cls-3" d="M71.72,46.85a1,1,0,0,1-.27.59.83.83,0,0,1-1.15,0,.88.88,0,0,1-.22-.59V21.19a.8.8,0,0,1,.82-.82.82.82,0,0,1,.59.23.84.84,0,0,1,.23.59Z"/><path class="cls-3" d="M105,34a16.14,16.14,0,0,1-1,5.69,13,13,0,0,1-2.71,4.45,12.2,12.2,0,0,1-4.13,2.89,14,14,0,0,1-10.45,0,12.14,12.14,0,0,1-4.14-2.89,13.11,13.11,0,0,1-2.71-4.45A16.14,16.14,0,0,1,79,34a16.14,16.14,0,0,1,1-5.69,13.11,13.11,0,0,1,2.71-4.45A12.14,12.14,0,0,1,86.78,21a14,14,0,0,1,10.45,0,12.2,12.2,0,0,1,4.13,2.89,13,13,0,0,1,2.71,4.45A16.14,16.14,0,0,1,105,34Zm-1.64,0a14,14,0,0,0-1.46-6.55,11,11,0,0,0-4-4.37,11.94,11.94,0,0,0-11.8,0,10.85,10.85,0,0,0-4,4.37A13.91,13.91,0,0,0,80.61,34a13.91,13.91,0,0,0,1.47,6.55,10.85,10.85,0,0,0,4,4.37,11.94,11.94,0,0,0,11.8,0,11,11,0,0,0,4-4.37A14,14,0,0,0,103.39,34Z"/><path class="cls-3" d="M136.38,34a16.37,16.37,0,0,1-.95,5.69,13.11,13.11,0,0,1-2.71,4.45,12.14,12.14,0,0,1-4.14,2.89,14,14,0,0,1-10.45,0A12.2,12.2,0,0,1,114,44.16a13,13,0,0,1-2.71-4.45,16.14,16.14,0,0,1-1-5.69,16.14,16.14,0,0,1,1-5.69A13,13,0,0,1,114,23.88,12.2,12.2,0,0,1,118.13,21a14,14,0,0,1,10.45,0,12.14,12.14,0,0,1,4.14,2.89,13.11,13.11,0,0,1,2.71,4.45A16.37,16.37,0,0,1,136.38,34Zm-1.63,0a13.91,13.91,0,0,0-1.47-6.55,10.87,10.87,0,0,0-4-4.37,11.94,11.94,0,0,0-11.8,0,10.87,10.87,0,0,0-4,4.37A14,14,0,0,0,112,34a14,14,0,0,0,1.46,6.55,10.87,10.87,0,0,0,4,4.37,11.94,11.94,0,0,0,11.8,0,10.87,10.87,0,0,0,4-4.37A13.91,13.91,0,0,0,134.75,34Z"/><path class="cls-3" d="M150.77,48.06a11.54,11.54,0,0,1-5.22-1A15.51,15.51,0,0,1,141.34,44a.72.72,0,0,1-.16-.21.75.75,0,0,1-.08-.37.87.87,0,0,1,.27-.6.81.81,0,0,1,.59-.3.91.91,0,0,1,.66.35,10.57,10.57,0,0,0,8,3.67,9.25,9.25,0,0,0,3.55-.64A5.63,5.63,0,0,0,156.62,44a4.47,4.47,0,0,0,.9-2.78,4.86,4.86,0,0,0-1.09-3.2,8.09,8.09,0,0,0-2.71-2c-1.11-.52-2.27-1-3.49-1.45-1-.36-1.91-.74-2.85-1.13a11.67,11.67,0,0,1-2.53-1.42,6,6,0,0,1-1.8-2.11,6.73,6.73,0,0,1-.66-3.14,6.06,6.06,0,0,1,1-3.45,7.2,7.2,0,0,1,3-2.45A10.57,10.57,0,0,1,151,20a12.21,12.21,0,0,1,4.33.8,7.2,7.2,0,0,1,3.31,2.4A1.69,1.69,0,0,1,159,24a.74.74,0,0,1-.29.54.89.89,0,0,1-.64.28.63.63,0,0,1-.51-.24,7.29,7.29,0,0,0-1.7-1.62,8.1,8.1,0,0,0-2.24-1.05,9.17,9.17,0,0,0-2.65-.37,9.36,9.36,0,0,0-3.47.62,6.1,6.1,0,0,0-2.5,1.78,4.36,4.36,0,0,0-.93,2.83,4.24,4.24,0,0,0,1,2.94,8.3,8.3,0,0,0,2.63,1.91c1.07.51,2.16,1,3.28,1.39s2,.7,2.94,1.11a11.6,11.6,0,0,1,2.65,1.5,6.51,6.51,0,0,1,1.9,2.26,7.59,7.59,0,0,1,.7,3.43,5.8,5.8,0,0,1-1,3.32,7.33,7.33,0,0,1-2.9,2.45A10.26,10.26,0,0,1,150.77,48.06Z"/><path class="cls-3" d="M188.56,20.37a7.66,7.66,0,0,1,3.88.94A6.48,6.48,0,0,1,195,23.92a8,8,0,0,1,.92,3.9,8.39,8.39,0,0,1-.92,3.94,7,7,0,0,1-2.58,2.77,7.31,7.31,0,0,1-3.88,1h-8.65l.15-.27V46.89a.73.73,0,0,1-.25.55.85.85,0,0,1-.57.23.78.78,0,0,1-.6-.23.82.82,0,0,1-.22-.55V21.15a.8.8,0,0,1,.78-.78Zm0,13.61a5.68,5.68,0,0,0,3.07-.8,5.46,5.46,0,0,0,2-2.2,7.09,7.09,0,0,0,.7-3.16,6.54,6.54,0,0,0-.7-3.1,5.25,5.25,0,0,0-2-2,6,6,0,0,0-3.07-.74h-8.62l.12-.19V34.1l-.15-.12Z"/><path class="cls-3" d="M210.29,22.36l-9.87,24.8a.68.68,0,0,1-.27.37.69.69,0,0,1-.43.14.77.77,0,0,1-.59-.2.75.75,0,0,1-.23-.46.69.69,0,0,1,0-.39L209.43,20.8a.75.75,0,0,1,.29-.41,1,1,0,0,1,.45-.1.88.88,0,0,1,.51.14.68.68,0,0,1,.27.37l10.49,25.82a.9.9,0,0,1,0,.31.68.68,0,0,1-.23.54,1,1,0,0,1-1.08.06.67.67,0,0,1-.29-.37L209.7,22.05Zm-7.22,16.85.55-1.56h12.63l.39,1.56Z"/><path class="cls-3" d="M248.16,22.63a.85.85,0,0,1,.35.53.94.94,0,0,1-.16.6.64.64,0,0,1-.49.3,1,1,0,0,1-.56-.14,14.56,14.56,0,0,0-3.57-1.79,12.4,12.4,0,0,0-4.12-.67,11.88,11.88,0,0,0-4.66.92,11.51,11.51,0,0,0-3.8,2.59,12.23,12.23,0,0,0-2.57,4,13.19,13.19,0,0,0-.94,5.07,13.19,13.19,0,0,0,.94,5.07,12.23,12.23,0,0,0,2.57,4,11.51,11.51,0,0,0,3.8,2.59,11.88,11.88,0,0,0,4.66.92,12.45,12.45,0,0,0,4.1-.66,15.88,15.88,0,0,0,3.55-1.76.83.83,0,0,1,.58-.16.71.71,0,0,1,.51.32.82.82,0,0,1,.16.58.71.71,0,0,1-.32.51,13.92,13.92,0,0,1-2.35,1.29,17.92,17.92,0,0,1-3,1,13.91,13.91,0,0,1-3.2.37A13.25,13.25,0,0,1,234.35,47a13.7,13.7,0,0,1-7.27-7.39,15.06,15.06,0,0,1,0-11.2A13.7,13.7,0,0,1,234.35,21,13.25,13.25,0,0,1,239.61,20a15,15,0,0,1,4.59.7A14.34,14.34,0,0,1,248.16,22.63Z"/><path class="cls-3" d="M256.81,46.85a.93.93,0,0,1-.27.59.83.83,0,0,1-1.15,0,.87.87,0,0,1-.21-.59V21.19a.79.79,0,0,1,.81-.82.82.82,0,0,1,.59.23.84.84,0,0,1,.23.59Z"/><path class="cls-3" d="M266.8,47.67a.75.75,0,0,1-.57-.23.81.81,0,0,1-.21-.55V21.15a.74.74,0,0,1,.23-.55.78.78,0,0,1,.55-.23h14.7a.79.79,0,0,1,.55,1.35.81.81,0,0,1-.55.21h-14l.12-.16V33l-.16-.32h12.32a.75.75,0,0,1,.55.24.72.72,0,0,1,.23.54.71.71,0,0,1-.23.57.81.81,0,0,1-.55.21h-12.4l.24-.31v13a.82.82,0,0,1-.22.55A.74.74,0,0,1,266.8,47.67Z"/><path class="cls-3" d="M291.17,46.85a1,1,0,0,1-.27.59.83.83,0,0,1-1.15,0,.83.83,0,0,1-.22-.59V21.19a.8.8,0,0,1,.82-.82.82.82,0,0,1,.59.23.84.84,0,0,1,.23.59Z"/><path class="cls-3" d="M320.58,22.63a.85.85,0,0,1,.35.53.94.94,0,0,1-.16.6.64.64,0,0,1-.49.3,1,1,0,0,1-.56-.14,14.56,14.56,0,0,0-3.57-1.79,12.39,12.39,0,0,0-4.11-.67,11.81,11.81,0,0,0-4.66.92A11.55,11.55,0,0,0,303.57,25,12.23,12.23,0,0,0,301,29a14.14,14.14,0,0,0,0,10.14,12.23,12.23,0,0,0,2.57,4,11.55,11.55,0,0,0,3.81,2.59,11.81,11.81,0,0,0,4.66.92,12.44,12.44,0,0,0,4.09-.66,15.88,15.88,0,0,0,3.55-1.76.84.84,0,0,1,.59-.16.71.71,0,0,1,.5.32.82.82,0,0,1,.16.58.73.73,0,0,1-.31.51,14,14,0,0,1-2.36,1.29,17.92,17.92,0,0,1-3,1,13.89,13.89,0,0,1-3.19.37A13.26,13.26,0,0,1,306.77,47a13.7,13.7,0,0,1-7.27-7.39,14.26,14.26,0,0,1-1.07-5.6,14.26,14.26,0,0,1,1.07-5.6A13.7,13.7,0,0,1,306.77,21,13.26,13.26,0,0,1,312,20a15,15,0,0,1,4.58.7A14.34,14.34,0,0,1,320.58,22.63Z"/><path class="cls-4" d="M127.54,69.14a.28.28,0,0,1-.2-.08.24.24,0,0,1-.07-.18V60.3a.25.25,0,0,1,.08-.18.22.22,0,0,1,.18-.08H131a2.92,2.92,0,0,1,1.35.3,2.43,2.43,0,0,1,.9.84,2.27,2.27,0,0,1,.33,1.21,2.67,2.67,0,0,1-.22,1.08,2.09,2.09,0,0,1-.6.8,2.28,2.28,0,0,1-.87.46l-.6-.1a2.06,2.06,0,0,1,1,.26,2.11,2.11,0,0,1,.76.78,2.47,2.47,0,0,1,.3,1.26,6,6,0,0,0,.06,1,1.27,1.27,0,0,0,.16.48.78.78,0,0,0,.22.25.29.29,0,0,1,.12.13.22.22,0,0,1,0,.18.2.2,0,0,1-.08.13.34.34,0,0,1-.12.06.29.29,0,0,1-.15,0,1.24,1.24,0,0,1-.35-.31,1.66,1.66,0,0,1-.3-.64,5.39,5.39,0,0,1-.11-1.22,2.25,2.25,0,0,0-.19-1,1.57,1.57,0,0,0-.48-.56,1.91,1.91,0,0,0-.63-.26,3.38,3.38,0,0,0-.6-.06H127.7l.12-.16v4a.25.25,0,0,1-.08.18A.28.28,0,0,1,127.54,69.14Zm.15-4.59H131a2.52,2.52,0,0,0,1-.31,2.19,2.19,0,0,0,.72-.73A2.08,2.08,0,0,0,133,62.4a1.75,1.75,0,0,0-.57-1.32,2.13,2.13,0,0,0-1.52-.52h-3.15l.07-.09v4.22Z"/><path class="cls-4" d="M136.16,60h4.9a.27.27,0,0,1,.26.26.22.22,0,0,1-.08.19.29.29,0,0,1-.18.07h-4.74l.13-.22v4l-.16-.19h4.19a.25.25,0,0,1,.18.08.27.27,0,0,1,.08.18.24.24,0,0,1-.08.19.25.25,0,0,1-.18.08h-4.16l.13-.15v4.12l0-.06h4.66a.27.27,0,0,1,.26.26.22.22,0,0,1-.08.19.29.29,0,0,1-.18.07h-4.9a.27.27,0,0,1-.26-.26V60.3a.25.25,0,0,1,.08-.18A.22.22,0,0,1,136.16,60Z"/><path class="cls-4" d="M147.29,69.27a4.94,4.94,0,0,1-1.87-.35,4.47,4.47,0,0,1-1.48-1,4.42,4.42,0,0,1-1-1.49,5.17,5.17,0,0,1,0-3.74,4.32,4.32,0,0,1,1-1.49,4.5,4.5,0,0,1,1.48-1,4.94,4.94,0,0,1,1.87-.34,5.67,5.67,0,0,1,1.38.17,4.09,4.09,0,0,1,1.18.53.28.28,0,0,1,.09.1.27.27,0,0,1,0,.12.24.24,0,0,1-.09.2.32.32,0,0,1-.16.06l-.09,0-.08,0a4.94,4.94,0,0,0-1.05-.44,4,4,0,0,0-1.21-.17,4.17,4.17,0,0,0-2.14.54,3.86,3.86,0,0,0-1.45,1.47,4.63,4.63,0,0,0,0,4.3,3.73,3.73,0,0,0,1.45,1.47,4.17,4.17,0,0,0,2.14.54,4.33,4.33,0,0,0,1.28-.2,4.39,4.39,0,0,0,1.11-.53l-.05.23V65l.18.17h-2.52a.22.22,0,0,1-.18-.08.25.25,0,0,1-.08-.18.26.26,0,0,1,.08-.19.29.29,0,0,1,.18-.07h2.6a.26.26,0,0,1,.19.08.24.24,0,0,1,.07.18v3.27a.26.26,0,0,1,0,.11.18.18,0,0,1-.09.12,4.75,4.75,0,0,1-1.28.62A4.51,4.51,0,0,1,147.29,69.27Z"/><path class="cls-4" d="M152.84,68.86a.34.34,0,0,1-.09.2.27.27,0,0,1-.38,0,.28.28,0,0,1-.08-.2V60.31a.26.26,0,0,1,.08-.19.24.24,0,0,1,.2-.08.22.22,0,0,1,.19.08.26.26,0,0,1,.08.19Z"/><path class="cls-4" d="M163.47,64.59a5.53,5.53,0,0,1-.31,1.9,4.54,4.54,0,0,1-.91,1.48,4.18,4.18,0,0,1-1.38,1,4.25,4.25,0,0,1-1.74.34,4.32,4.32,0,0,1-1.74-.34A4.18,4.18,0,0,1,156,68a4.36,4.36,0,0,1-.9-1.48,5.53,5.53,0,0,1-.32-1.9,5.45,5.45,0,0,1,.32-1.9,4.26,4.26,0,0,1,.9-1.48,3.9,3.9,0,0,1,1.38-1,4.32,4.32,0,0,1,1.74-.34,4.25,4.25,0,0,1,1.74.34,3.9,3.9,0,0,1,1.38,1,4.44,4.44,0,0,1,.91,1.48A5.45,5.45,0,0,1,163.47,64.59Zm-.54,0a4.65,4.65,0,0,0-.49-2.19A3.55,3.55,0,0,0,161.1,61a3.74,3.74,0,0,0-5.28,1.45,4.77,4.77,0,0,0-.48,2.19,4.7,4.7,0,0,0,.48,2.18,3.67,3.67,0,0,0,1.35,1.46,4,4,0,0,0,3.93,0,3.57,3.57,0,0,0,1.34-1.46A4.58,4.58,0,0,0,162.93,64.59Z"/><path class="cls-4" d="M172,60a.21.21,0,0,1,.18.07.24.24,0,0,1,.07.18v8.56a.27.27,0,0,1-.09.22.29.29,0,0,1-.18.07.3.3,0,0,1-.21-.11l-6-8.24.18-.09v8.22a.18.18,0,0,1-.07.15.24.24,0,0,1-.18.07.24.24,0,0,1-.25-.22V60.3a.22.22,0,0,1,.08-.2.27.27,0,0,1,.16-.06.18.18,0,0,1,.1,0,.13.13,0,0,1,.09.07l6,8.19-.1.26V60.29a.24.24,0,0,1,.07-.18A.25.25,0,0,1,172,60Z"/><path class="cls-4" d="M177.8,60.7,174.51,69a.27.27,0,0,1-.09.12.24.24,0,0,1-.14,0,.26.26,0,0,1-.2-.07.28.28,0,0,1-.08-.15.32.32,0,0,1,0-.13l3.49-8.61a.32.32,0,0,1,.1-.14.33.33,0,0,1,.15,0,.29.29,0,0,1,.17.05.27.27,0,0,1,.09.12l3.5,8.61a.28.28,0,0,1,0,.1.19.19,0,0,1-.08.18.25.25,0,0,1-.19.07.28.28,0,0,1-.16,0A.23.23,0,0,1,181,69l-3.4-8.37Zm-2.4,5.62.18-.52h4.21l.13.52Z"/><path class="cls-4" d="M188.32,68.62a.22.22,0,0,1,.18.08.25.25,0,0,1,.08.18.26.26,0,0,1-.08.19.29.29,0,0,1-.18.07h-4.77a.26.26,0,0,1-.26-.26V60.3a.24.24,0,0,1,.07-.18.26.26,0,0,1,.2-.08.22.22,0,0,1,.19.08.22.22,0,0,1,.08.18v8.55l-.23-.23Z"/><path class="cls-4" d="M196.53,60.7,193.24,69a.18.18,0,0,1-.09.12.24.24,0,0,1-.14,0,.26.26,0,0,1-.2-.07.26.26,0,0,1-.07-.15.2.2,0,0,1,0-.13l3.5-8.61a.31.31,0,0,1,.09-.14.33.33,0,0,1,.15,0,.29.29,0,0,1,.17.05.18.18,0,0,1,.09.12l3.5,8.61a.28.28,0,0,1,0,.1.21.21,0,0,1-.07.18.29.29,0,0,1-.2.07.3.3,0,0,1-.16,0,.23.23,0,0,1-.1-.12l-3.39-8.37Zm-2.4,5.62.18-.52h4.21l.13.52Z"/><path class="cls-4" d="M204.4,69.27a3.93,3.93,0,0,1-1.75-.34,5.19,5.19,0,0,1-1.4-1s0,0-.05-.07a.21.21,0,0,1,0-.12.28.28,0,0,1,.09-.2.26.26,0,0,1,.2-.1.29.29,0,0,1,.22.12,3.52,3.52,0,0,0,2.67,1.22,3,3,0,0,0,1.18-.22,1.89,1.89,0,0,0,.82-.61,1.48,1.48,0,0,0,.3-.93,1.58,1.58,0,0,0-.37-1.06,2.72,2.72,0,0,0-.9-.67c-.37-.17-.76-.33-1.16-.48l-.95-.37a3.68,3.68,0,0,1-.85-.48,2,2,0,0,1-.6-.7,2.33,2.33,0,0,1-.22-1A2,2,0,0,1,202,61a2.46,2.46,0,0,1,1-.82,3.52,3.52,0,0,1,1.52-.3,4.13,4.13,0,0,1,1.44.26A2.49,2.49,0,0,1,207,61a.55.55,0,0,1,.13.28.24.24,0,0,1-.1.18.29.29,0,0,1-.21.09.21.21,0,0,1-.17-.08,2.44,2.44,0,0,0-.57-.54,2.65,2.65,0,0,0-.74-.35,3.24,3.24,0,0,0-.89-.12,3,3,0,0,0-1.15.21,1.91,1.91,0,0,0-.84.59,1.48,1.48,0,0,0-.31.94,1.4,1.4,0,0,0,.35,1,2.63,2.63,0,0,0,.87.64c.36.17.72.32,1.1.46s.65.24,1,.37a3.79,3.79,0,0,1,.88.5,2.23,2.23,0,0,1,.63.76,2.41,2.41,0,0,1,.24,1.14,1.89,1.89,0,0,1-.35,1.1,2.46,2.46,0,0,1-1,.82A3.38,3.38,0,0,1,204.4,69.27Z"/><path class="cls-4" d="M211.55,69.27a3.86,3.86,0,0,1-1.74-.34,5.08,5.08,0,0,1-1.41-1s0,0-.05-.07a.21.21,0,0,1,0-.12.28.28,0,0,1,.09-.2.28.28,0,0,1,.2-.1.29.29,0,0,1,.22.12,3.52,3.52,0,0,0,2.67,1.22,3,3,0,0,0,1.18-.22,1.89,1.89,0,0,0,.82-.61,1.48,1.48,0,0,0,.3-.93,1.58,1.58,0,0,0-.37-1.06,2.72,2.72,0,0,0-.9-.67c-.37-.17-.76-.33-1.16-.48l-1-.37a3.68,3.68,0,0,1-.85-.48,2,2,0,0,1-.6-.7,2.33,2.33,0,0,1-.22-1A2,2,0,0,1,209.1,61a2.46,2.46,0,0,1,1-.82,3.52,3.52,0,0,1,1.52-.3,4.22,4.22,0,0,1,1.45.26,2.52,2.52,0,0,1,1.1.8.55.55,0,0,1,.13.28.24.24,0,0,1-.1.18.29.29,0,0,1-.21.09.21.21,0,0,1-.17-.08,2.26,2.26,0,0,0-.57-.54,2.65,2.65,0,0,0-.74-.35,3.24,3.24,0,0,0-.89-.12,3,3,0,0,0-1.15.21,1.91,1.91,0,0,0-.84.59,1.48,1.48,0,0,0-.31.94,1.4,1.4,0,0,0,.35,1,2.73,2.73,0,0,0,.87.64c.36.17.72.32,1.1.46s.65.24,1,.37a3.79,3.79,0,0,1,.88.5,2,2,0,0,1,.63.76,2.41,2.41,0,0,1,.24,1.14,1.89,1.89,0,0,1-.35,1.1,2.46,2.46,0,0,1-1,.82A3.38,3.38,0,0,1,211.55,69.27Z"/><path class="cls-4" d="M224.35,64.59a5.3,5.3,0,0,1-.32,1.9,4.36,4.36,0,0,1-.9,1.48,4.18,4.18,0,0,1-1.38,1,4.62,4.62,0,0,1-3.48,0,4.18,4.18,0,0,1-1.38-1,4.36,4.36,0,0,1-.9-1.48,5.3,5.3,0,0,1-.32-1.9,5.23,5.23,0,0,1,.32-1.9,4.26,4.26,0,0,1,.9-1.48,3.9,3.9,0,0,1,1.38-1,4.62,4.62,0,0,1,3.48,0,3.9,3.9,0,0,1,1.38,1,4.26,4.26,0,0,1,.9,1.48A5.23,5.23,0,0,1,224.35,64.59Zm-.54,0a4.77,4.77,0,0,0-.49-2.19A3.62,3.62,0,0,0,222,61a3.74,3.74,0,0,0-5.28,1.45,4.77,4.77,0,0,0-.49,2.19,4.7,4.7,0,0,0,.49,2.18,3.67,3.67,0,0,0,1.35,1.46,4,4,0,0,0,3.93,0,3.64,3.64,0,0,0,1.34-1.46A4.7,4.7,0,0,0,223.81,64.59Z"/><path class="cls-4" d="M233,60.79a.22.22,0,0,1,.11.18.26.26,0,0,1-.05.2.23.23,0,0,1-.16.1.32.32,0,0,1-.19-.05,4.92,4.92,0,0,0-1.19-.6,4.42,4.42,0,0,0-1.37-.22,3.8,3.8,0,0,0-1.55.31,3.71,3.71,0,0,0-1.27.86,4,4,0,0,0-.86,1.33,4.76,4.76,0,0,0,0,3.38,4,4,0,0,0,.86,1.32,3.74,3.74,0,0,0,1.27.87,4,4,0,0,0,1.55.3,4,4,0,0,0,1.36-.22,5,5,0,0,0,1.19-.58.22.22,0,0,1,.19,0,.21.21,0,0,1,.17.1.23.23,0,0,1,.05.19.21.21,0,0,1-.1.17,4.38,4.38,0,0,1-.79.43,5.33,5.33,0,0,1-1,.33,4.41,4.41,0,0,1-1.07.13,4.53,4.53,0,0,1-1.76-.35,4.72,4.72,0,0,1-1.44-1,4.88,4.88,0,0,1-1-1.49,4.71,4.71,0,0,1-.36-1.86A4.69,4.69,0,0,1,227,61.24a4.55,4.55,0,0,1,1.44-1,4.36,4.36,0,0,1,1.76-.35,5.2,5.2,0,0,1,1.53.23A4.78,4.78,0,0,1,233,60.79Z"/><path class="cls-4" d="M235.45,68.86a.34.34,0,0,1-.09.2.25.25,0,0,1-.18.08.26.26,0,0,1-.2-.08.27.27,0,0,1-.07-.2V60.31a.27.27,0,0,1,.27-.27.26.26,0,0,1,.2.08.25.25,0,0,1,.07.19Z"/><path class="cls-4" d="M241,60.7,237.72,69a.23.23,0,0,1-.1.12.24.24,0,0,1-.14,0,.24.24,0,0,1-.19-.07.22.22,0,0,1-.08-.15.2.2,0,0,1,0-.13l3.5-8.61a.26.26,0,0,1,.1-.14.28.28,0,0,1,.15,0,.28.28,0,0,1,.16.05.23.23,0,0,1,.1.12l3.49,8.61a.25.25,0,0,1,0,.1.22.22,0,0,1-.08.18.29.29,0,0,1-.2.07.3.3,0,0,1-.16,0,.23.23,0,0,1-.1-.12l-3.39-8.37Zm-2.4,5.62.18-.52H243l.13.52Z"/><path class="cls-4" d="M245.26,60.53a.28.28,0,0,1-.19-.07.23.23,0,0,1-.07-.17.24.24,0,0,1,.07-.18.28.28,0,0,1,.19-.07h6.31a.28.28,0,0,1,.19.07.27.27,0,0,1,0,.36.33.33,0,0,1-.19.06Zm3.15,8.61a.23.23,0,0,1-.18-.08.25.25,0,0,1-.08-.18V60.35h.52v8.53a.24.24,0,0,1-.07.18A.29.29,0,0,1,248.41,69.14Z"/><path class="cls-4" d="M254.13,68.86a.29.29,0,0,1-.27.28.26.26,0,0,1-.2-.08.27.27,0,0,1-.07-.2V60.31a.27.27,0,0,1,.27-.27.26.26,0,0,1,.2.08.25.25,0,0,1,.07.19Z"/><path class="cls-4" d="M264.77,64.59a5.53,5.53,0,0,1-.32,1.9,4.36,4.36,0,0,1-.9,1.48,4.18,4.18,0,0,1-1.38,1,4.32,4.32,0,0,1-1.74.34,4.25,4.25,0,0,1-1.74-.34,4.18,4.18,0,0,1-1.38-1,4.54,4.54,0,0,1-.91-1.48,5.53,5.53,0,0,1-.31-1.9,5.45,5.45,0,0,1,.31-1.9,4.44,4.44,0,0,1,.91-1.48,3.9,3.9,0,0,1,1.38-1,4.25,4.25,0,0,1,1.74-.34,4.32,4.32,0,0,1,1.74.34,3.9,3.9,0,0,1,1.38,1,4.26,4.26,0,0,1,.9,1.48A5.45,5.45,0,0,1,264.77,64.59Zm-.55,0a4.77,4.77,0,0,0-.48-2.19A3.84,3.84,0,0,0,258.46,61a3.55,3.55,0,0,0-1.34,1.45,4.65,4.65,0,0,0-.49,2.19,4.58,4.58,0,0,0,.49,2.18,3.57,3.57,0,0,0,1.34,1.46,4,4,0,0,0,3.94,0,3.71,3.71,0,0,0,1.34-1.46A4.7,4.7,0,0,0,264.22,64.59Z"/><path class="cls-4" d="M273.3,60a.23.23,0,0,1,.18.07.28.28,0,0,1,.06.18v8.56a.26.26,0,0,1-.08.22.34.34,0,0,1-.19.07l-.11,0a.25.25,0,0,1-.1-.08l-6-8.24.18-.09v8.22a.18.18,0,0,1-.07.15.23.23,0,0,1-.17.07.25.25,0,0,1-.19-.07.2.2,0,0,1-.06-.15V60.3c0-.1,0-.17.08-.2A.24.24,0,0,1,267,60a.22.22,0,0,1,.11,0,.18.18,0,0,1,.09.07l6,8.19-.1.26V60.29a.25.25,0,0,1,.08-.18A.23.23,0,0,1,273.3,60Z"/><path class="cls-4" d="M287.69,64.59a5.53,5.53,0,0,1-.32,1.9,4.52,4.52,0,0,1-.9,1.48,4.19,4.19,0,0,1-3.12,1.3,4.34,4.34,0,0,1-1.75-.34,4,4,0,0,1-1.37-1,4.38,4.38,0,0,1-.91-1.48,5.53,5.53,0,0,1-.32-1.9,5.45,5.45,0,0,1,.32-1.9,4.29,4.29,0,0,1,.91-1.48,3.78,3.78,0,0,1,1.37-1,4.65,4.65,0,0,1,3.49,0,4,4,0,0,1,1.38,1,4.42,4.42,0,0,1,.9,1.48A5.45,5.45,0,0,1,287.69,64.59Zm-.55,0a4.65,4.65,0,0,0-.49-2.19A3.55,3.55,0,0,0,285.31,61a3.63,3.63,0,0,0-2-.52,3.69,3.69,0,0,0-2,.52A3.55,3.55,0,0,0,280,62.4a4.65,4.65,0,0,0-.49,2.19,4.58,4.58,0,0,0,.49,2.18,3.57,3.57,0,0,0,1.34,1.46,3.79,3.79,0,0,0,2,.52,3.72,3.72,0,0,0,2-.52,3.57,3.57,0,0,0,1.34-1.46A4.58,4.58,0,0,0,287.14,64.59Z"/><path class="cls-4" d="M289.9,69.14a.26.26,0,0,1-.19-.08.24.24,0,0,1-.07-.18V60.3a.27.27,0,0,1,.26-.26h4.9a.22.22,0,0,1,.18.08.25.25,0,0,1,.08.18.26.26,0,0,1-.08.19.29.29,0,0,1-.18.07h-4.68l0-.05v3.74l-.06-.1h4.11a.24.24,0,0,1,.26.26.23.23,0,0,1-.07.18.29.29,0,0,1-.19.08h-4.13l.08-.11v4.32a.29.29,0,0,1-.07.18A.26.26,0,0,1,289.9,69.14Z"/><path class="cls-4" d="M299.93,60.53a.24.24,0,0,1-.18-.07.25.25,0,0,1-.08-.17.25.25,0,0,1,.08-.18.24.24,0,0,1,.18-.07h6.32a.24.24,0,0,1,.18.07.24.24,0,0,1,0,.36.28.28,0,0,1-.18.06Zm3.16,8.61a.26.26,0,0,1-.19-.08.29.29,0,0,1-.07-.18V60.35h.52v8.53a.22.22,0,0,1-.08.18A.25.25,0,0,1,303.09,69.14Z"/><path class="cls-4" d="M308.54,60a.27.27,0,0,1,.27.27v8.55a.34.34,0,0,1-.09.2.27.27,0,0,1-.38,0,.27.27,0,0,1-.07-.2V60.31a.25.25,0,0,1,.07-.19A.26.26,0,0,1,308.54,60Zm-.07,4.16h6.31l0,.52H308.4ZM314.75,60a.24.24,0,0,1,.2.08.25.25,0,0,1,.07.19v8.55a.29.29,0,0,1-.27.28.28.28,0,0,1-.2-.08.27.27,0,0,1-.07-.2V60.31a.26.26,0,0,1,.08-.19A.22.22,0,0,1,314.75,60Z"/><path class="cls-4" d="M317.89,60h4.9a.22.22,0,0,1,.18.08.25.25,0,0,1,.08.18.26.26,0,0,1-.08.19.29.29,0,0,1-.18.07H318l.13-.22v4l-.15-.19h4.18a.25.25,0,0,1,.18.08.23.23,0,0,1,.08.18.21.21,0,0,1-.08.19.25.25,0,0,1-.18.08H318l.13-.15v4.12l-.05-.06h4.67a.22.22,0,0,1,.18.08.25.25,0,0,1,.08.18.26.26,0,0,1-.08.19.29.29,0,0,1-.18.07h-4.9a.29.29,0,0,1-.19-.08.24.24,0,0,1-.07-.18V60.3a.24.24,0,0,1,.07-.18A.25.25,0,0,1,317.89,60Z"/><path class="cls-4" d="M12.64,76.39a.27.27,0,0,1,.12.18.33.33,0,0,1-.06.2.21.21,0,0,1-.16.1.34.34,0,0,1-.19-.05,4.92,4.92,0,0,0-1.19-.6A4.37,4.37,0,0,0,9.79,76a3.83,3.83,0,0,0-1.55.31A3.91,3.91,0,0,0,7,77.17a4.18,4.18,0,0,0-.86,1.33,4.76,4.76,0,0,0,0,3.38A4.13,4.13,0,0,0,7,83.2a3.94,3.94,0,0,0,1.27.87,4,4,0,0,0,1.55.3,4.1,4.1,0,0,0,1.37-.22,5.39,5.39,0,0,0,1.18-.58.23.23,0,0,1,.19,0,.21.21,0,0,1,.17.1.29.29,0,0,1,.06.19.25.25,0,0,1-.11.17,4.62,4.62,0,0,1-.78.43,5.68,5.68,0,0,1-1,.33,4.35,4.35,0,0,1-1.07.13A4.45,4.45,0,0,1,8,84.52a4.64,4.64,0,0,1-1.45-1,4.88,4.88,0,0,1-1-1.49,4.71,4.71,0,0,1-.35-1.86,4.63,4.63,0,0,1,1.33-3.35,4.48,4.48,0,0,1,1.45-1,4.28,4.28,0,0,1,1.75-.35,4.89,4.89,0,0,1,1.53.23A4.78,4.78,0,0,1,12.64,76.39Z"/><path class="cls-4" d="M17.46,76.3l-3.29,8.27a.27.27,0,0,1-.09.12.24.24,0,0,1-.14,0,.26.26,0,0,1-.2-.07.21.21,0,0,1-.07-.15.2.2,0,0,1,0-.13l3.5-8.61a.24.24,0,0,1,.09-.14.33.33,0,0,1,.15,0,.29.29,0,0,1,.17,0,.27.27,0,0,1,.09.12l3.5,8.61a.28.28,0,0,1,0,.1.19.19,0,0,1-.08.18.25.25,0,0,1-.19.07.28.28,0,0,1-.16,0,.23.23,0,0,1-.1-.12L17.27,76.2Zm-2.4,5.62.18-.52h4.21l.13.52Z"/><path class="cls-4" d="M29.53,75.64a.24.24,0,0,1,.18.07.27.27,0,0,1,.06.17v8.57a.29.29,0,0,1-.08.22.34.34,0,0,1-.19.07l-.11,0a.25.25,0,0,1-.1-.08l-6-8.24.18-.09v8.22a.18.18,0,0,1-.07.15.27.27,0,0,1-.36,0,.2.2,0,0,1-.06-.15V75.9c0-.1,0-.17.08-.2a.24.24,0,0,1,.15-.06.22.22,0,0,1,.11,0,.18.18,0,0,1,.09.07l6,8.19-.1.26v-8.3a.25.25,0,0,1,.08-.17A.23.23,0,0,1,29.53,75.64Z"/><path class="cls-4" d="M35.32,76.3,32,84.57a.18.18,0,0,1-.09.12.24.24,0,0,1-.14,0,.26.26,0,0,1-.27-.22.2.2,0,0,1,0-.13L35,75.78a.26.26,0,0,1,.1-.14.26.26,0,0,1,.14,0,.29.29,0,0,1,.17,0,.18.18,0,0,1,.09.12L39,84.39a.25.25,0,0,1,0,.1.22.22,0,0,1-.08.18.29.29,0,0,1-.2.07.3.3,0,0,1-.16,0,.23.23,0,0,1-.1-.12L35.13,76.2Zm-2.4,5.62.18-.52h4.21l.13.52Z"/><path class="cls-4" d="M44.45,75.64a3.6,3.6,0,0,1,1.69.37,3.2,3.2,0,0,1,1.18,1A4.77,4.77,0,0,1,48,78.48a6.47,6.47,0,0,1,.22,1.71,6.21,6.21,0,0,1-.4,2.28,3.36,3.36,0,0,1-3.37,2.27H41.07a.27.27,0,0,1-.26-.26V75.9a.29.29,0,0,1,.08-.19.24.24,0,0,1,.18-.07Zm-.13,8.58a3.18,3.18,0,0,0,1.93-.54,3.14,3.14,0,0,0,1.08-1.46,5.73,5.73,0,0,0,.34-2,5.81,5.81,0,0,0-.19-1.52,3.76,3.76,0,0,0-.59-1.3,2.91,2.91,0,0,0-1-.89,3.39,3.39,0,0,0-1.53-.32h-3l.07-.11v8.28l-.07-.11Z"/><path class="cls-4" d="M50.72,84.46a.3.3,0,0,1-.1.2.25.25,0,0,1-.18.08.28.28,0,0,1-.2-.08.27.27,0,0,1-.07-.2V75.91a.3.3,0,0,1,.08-.2.25.25,0,0,1,.19-.07.27.27,0,0,1,.2.07.3.3,0,0,1,.08.2Z"/><path class="cls-4" d="M56.27,76.3,53,84.57a.27.27,0,0,1-.09.12.27.27,0,0,1-.15,0,.24.24,0,0,1-.19-.07.22.22,0,0,1-.08-.15.3.3,0,0,1,0-.13L56,75.78a.32.32,0,0,1,.1-.14.33.33,0,0,1,.15,0,.31.31,0,0,1,.17,0,.27.27,0,0,1,.09.12L60,84.39a.25.25,0,0,1,0,.1.22.22,0,0,1-.08.18.27.27,0,0,1-.2.07.3.3,0,0,1-.16,0,.23.23,0,0,1-.1-.12L56.07,76.2Zm-2.41,5.62L54,81.4h4.22l.13.52Z"/><path class="cls-4" d="M68.33,75.64a.21.21,0,0,1,.18.07.23.23,0,0,1,.07.17v8.57a.27.27,0,0,1-.09.22.32.32,0,0,1-.19.07l-.11,0a.18.18,0,0,1-.09-.08l-6-8.24.19-.09v8.22a.19.19,0,0,1-.08.15.21.21,0,0,1-.17.07.21.21,0,0,1-.18-.07.18.18,0,0,1-.07-.15V75.9a.22.22,0,0,1,.08-.2.25.25,0,0,1,.16-.06.18.18,0,0,1,.1,0,.18.18,0,0,1,.09.07l6,8.19-.11.26v-8.3a.25.25,0,0,1,.08-.17A.23.23,0,0,1,68.33,75.64Z"/><path class="cls-4" d="M75.23,84.46a.34.34,0,0,1-.09.2.25.25,0,0,1-.18.08.26.26,0,0,1-.2-.08.27.27,0,0,1-.07-.2V75.91a.24.24,0,0,1,.27-.27.25.25,0,0,1,.19.07.26.26,0,0,1,.08.2Z"/><path class="cls-4" d="M84.41,75.64a.21.21,0,0,1,.18.07.23.23,0,0,1,.07.17v8.57a.27.27,0,0,1-.09.22.32.32,0,0,1-.19.07l-.11,0a.18.18,0,0,1-.09-.08l-6-8.24.18-.09v8.22a.21.21,0,0,1-.07.15.24.24,0,0,1-.18.07.21.21,0,0,1-.18-.07.18.18,0,0,1-.07-.15V75.9a.22.22,0,0,1,.08-.2.27.27,0,0,1,.16-.06.18.18,0,0,1,.1,0,.13.13,0,0,1,.09.07l6,8.19-.11.26v-8.3a.25.25,0,0,1,.08-.17A.23.23,0,0,1,84.41,75.64Z"/><path class="cls-4" d="M86.67,76.13a.24.24,0,0,1-.18-.07.25.25,0,0,1-.08-.18.25.25,0,0,1,.08-.17.24.24,0,0,1,.18-.07H93a.24.24,0,0,1,.18.07.25.25,0,0,1,.08.17.26.26,0,0,1-.08.19.28.28,0,0,1-.18.06Zm3.16,8.61a.26.26,0,0,1-.19-.08.29.29,0,0,1-.07-.18V76h.52v8.53a.22.22,0,0,1-.08.18A.25.25,0,0,1,89.83,84.74Z"/><path class="cls-4" d="M95.27,75.64h4.9a.24.24,0,0,1,.18.07.29.29,0,0,1,.08.19.26.26,0,0,1-.08.19.29.29,0,0,1-.18.07H95.42l.13-.22v4l-.15-.19h4.18a.25.25,0,0,1,.18.08.22.22,0,0,1,.08.18.21.21,0,0,1-.08.19.24.24,0,0,1-.18.07H95.42l.13-.14v4.12l0-.06h4.67a.24.24,0,0,1,.18.07.29.29,0,0,1,.08.19.26.26,0,0,1-.08.19.29.29,0,0,1-.18.07h-4.9a.29.29,0,0,1-.19-.08.24.24,0,0,1-.07-.18V75.9a.24.24,0,0,1,.26-.26Z"/><path class="cls-4" d="M106.39,84.87a4.89,4.89,0,0,1-1.86-.35,4.37,4.37,0,0,1-1.48-1,4.3,4.3,0,0,1-1-1.49,5.31,5.31,0,0,1,0-3.74,4.2,4.2,0,0,1,1-1.49,4.4,4.4,0,0,1,1.48-1,4.89,4.89,0,0,1,1.86-.34,5.67,5.67,0,0,1,1.38.17,4,4,0,0,1,1.18.53.17.17,0,0,1,.09.1.27.27,0,0,1,0,.12.24.24,0,0,1-.09.2.29.29,0,0,1-.16.06l-.09,0-.08,0a4.94,4.94,0,0,0-1.05-.44,4,4,0,0,0-1.21-.17,4.2,4.2,0,0,0-2.14.54A3.86,3.86,0,0,0,102.8,78a4.63,4.63,0,0,0,0,4.3,3.73,3.73,0,0,0,1.45,1.47,4.2,4.2,0,0,0,2.14.54,4.28,4.28,0,0,0,1.28-.2,4.39,4.39,0,0,0,1.11-.53l0,.23V80.6l.18.17h-2.52a.22.22,0,0,1-.18-.08.25.25,0,0,1-.08-.18.26.26,0,0,1,.08-.19.29.29,0,0,1,.18-.07H109a.26.26,0,0,1,.19.08.24.24,0,0,1,.07.18v3.27a.52.52,0,0,1,0,.11.34.34,0,0,1-.09.12,5,5,0,0,1-1.29.62A4.47,4.47,0,0,1,106.39,84.87Z"/><path class="cls-4" d="M111.67,84.74a.26.26,0,0,1-.2-.08.24.24,0,0,1-.07-.18V75.9a.25.25,0,0,1,.08-.19.24.24,0,0,1,.18-.07h3.43a2.92,2.92,0,0,1,1.35.3,2.43,2.43,0,0,1,.9.84,2.26,2.26,0,0,1,.32,1.21,2.67,2.67,0,0,1-.21,1.08,2.09,2.09,0,0,1-.6.8,2.32,2.32,0,0,1-.88.46l-.59-.1a2,2,0,0,1,1,.26,2.06,2.06,0,0,1,.77.78,2.47,2.47,0,0,1,.3,1.26,6,6,0,0,0,.06,1,1.27,1.27,0,0,0,.16.48.78.78,0,0,0,.22.25.37.37,0,0,1,.12.13.22.22,0,0,1,0,.18.29.29,0,0,1-.08.13.21.21,0,0,1-.13,0,.24.24,0,0,1-.14,0,1.42,1.42,0,0,1-.36-.31,1.83,1.83,0,0,1-.29-.64,4.78,4.78,0,0,1-.12-1.22,2.23,2.23,0,0,0-.18-1,1.5,1.5,0,0,0-.49-.56,1.78,1.78,0,0,0-.62-.26,3.38,3.38,0,0,0-.6-.06h-3.16l.11-.16v4a.24.24,0,0,1-.07.18A.3.3,0,0,1,111.67,84.74Zm.14-4.59h3.34a2.51,2.51,0,0,0,1-.31,2.07,2.07,0,0,0,1-1.84,1.73,1.73,0,0,0-.57-1.32,2.13,2.13,0,0,0-1.53-.52h-3.14l.06-.09v4.22Z"/><path class="cls-4" d="M123,76.3l-3.29,8.27a.27.27,0,0,1-.09.12.24.24,0,0,1-.14,0,.26.26,0,0,1-.2-.07.21.21,0,0,1-.07-.15.2.2,0,0,1,0-.13l3.49-8.61a.32.32,0,0,1,.1-.14.33.33,0,0,1,.15,0,.29.29,0,0,1,.17,0,.27.27,0,0,1,.09.12l3.5,8.61a.28.28,0,0,1,0,.1.19.19,0,0,1-.08.18.25.25,0,0,1-.19.07.28.28,0,0,1-.16,0,.23.23,0,0,1-.1-.12l-3.39-8.37Zm-2.4,5.62.18-.52H125l.13.52Z"/><path class="cls-4" d="M127.23,76.13a.24.24,0,0,1-.18-.07.25.25,0,0,1-.08-.18.25.25,0,0,1,.08-.17.24.24,0,0,1,.18-.07h6.32a.24.24,0,0,1,.18.07.25.25,0,0,1,.08.17.26.26,0,0,1-.08.19.28.28,0,0,1-.18.06Zm3.16,8.61a.26.26,0,0,1-.19-.08.24.24,0,0,1-.07-.18V76h.52v8.53a.22.22,0,0,1-.08.18A.25.25,0,0,1,130.39,84.74Z"/><path class="cls-4" d="M135.82,75.64h4.91a.27.27,0,0,1,.18.07.28.28,0,0,1,.07.19.25.25,0,0,1-.07.19.34.34,0,0,1-.18.07H136l.13-.22v4l-.16-.19h4.19a.27.27,0,0,1,.26.26.26.26,0,0,1-.26.26H136l.13-.14v4.12l-.05-.06h4.67a.27.27,0,0,1,.18.07.28.28,0,0,1,.07.19.25.25,0,0,1-.07.19.34.34,0,0,1-.18.07h-4.91a.27.27,0,0,1-.26-.26V75.9a.29.29,0,0,1,.08-.19A.24.24,0,0,1,135.82,75.64Z"/><path class="cls-4" d="M146.58,75.64a3.6,3.6,0,0,1,1.69.37,3.25,3.25,0,0,1,1.17,1,4.35,4.35,0,0,1,.68,1.46,6.6,6.6,0,0,1-.17,4,3.68,3.68,0,0,1-1.23,1.65,3.5,3.5,0,0,1-2.14.62h-3.39a.27.27,0,0,1-.18-.08.24.24,0,0,1-.07-.18V75.9a.28.28,0,0,1,.07-.19.26.26,0,0,1,.18-.07Zm-.14,8.58a3.21,3.21,0,0,0,1.94-.54,3.06,3.06,0,0,0,1.07-1.46,5.73,5.73,0,0,0,.35-2,5.81,5.81,0,0,0-.19-1.52,4,4,0,0,0-.59-1.3,3,3,0,0,0-1-.89,3.47,3.47,0,0,0-1.54-.32h-3l.08-.11v8.28l-.08-.11Z"/><path class="cls-4" d="M163.84,80.19a5.43,5.43,0,0,1-.32,1.89,4.31,4.31,0,0,1-.9,1.49,4.18,4.18,0,0,1-1.38,1,4.5,4.5,0,0,1-1.74.34,4.43,4.43,0,0,1-1.74-.34,4.18,4.18,0,0,1-1.38-1,4.49,4.49,0,0,1-.91-1.49,5.95,5.95,0,0,1,0-3.79,4.44,4.44,0,0,1,.91-1.48,3.9,3.9,0,0,1,1.38-1,4.25,4.25,0,0,1,1.74-.34,4.32,4.32,0,0,1,1.74.34,3.9,3.9,0,0,1,1.38,1,4.26,4.26,0,0,1,.9,1.48A5.45,5.45,0,0,1,163.84,80.19Zm-.55,0a4.77,4.77,0,0,0-.48-2.19,3.84,3.84,0,0,0-5.28-1.45A3.55,3.55,0,0,0,156.19,78a4.65,4.65,0,0,0-.49,2.19,4.58,4.58,0,0,0,.49,2.18,3.57,3.57,0,0,0,1.34,1.46,4,4,0,0,0,3.94,0,3.71,3.71,0,0,0,1.34-1.46A4.7,4.7,0,0,0,163.29,80.19Z"/><path class="cls-4" d="M172.52,76.39a.27.27,0,0,1,.12.18.31.31,0,0,1,0,.2.26.26,0,0,1-.16.1.32.32,0,0,1-.19-.05,5.11,5.11,0,0,0-1.19-.6,4.42,4.42,0,0,0-1.37-.22,3.85,3.85,0,0,0-1.56.31,3.91,3.91,0,0,0-1.27.86A4,4,0,0,0,166,78.5a4.76,4.76,0,0,0,0,3.38,3.93,3.93,0,0,0,2.12,2.19,4.26,4.26,0,0,0,2.92.08,5.18,5.18,0,0,0,1.18-.58.24.24,0,0,1,.2,0,.22.22,0,0,1,.17.1.27.27,0,0,1,0,.19.23.23,0,0,1-.1.17,4.38,4.38,0,0,1-.79.43,5.43,5.43,0,0,1-1,.33,4.27,4.27,0,0,1-1.06.13,4.44,4.44,0,0,1-3.2-1.33,4.54,4.54,0,0,1-1-1.49,4.71,4.71,0,0,1-.36-1.86,4.76,4.76,0,0,1,.36-1.87,4.4,4.4,0,0,1,1-1.48,4.44,4.44,0,0,1,3.2-1.33,4.87,4.87,0,0,1,1.52.23A4.78,4.78,0,0,1,172.52,76.39Z"/><path class="cls-4" d="M174.65,75.64h4.91a.24.24,0,0,1,.18.07.29.29,0,0,1,.08.19.26.26,0,0,1-.08.19.29.29,0,0,1-.18.07h-4.75l.13-.22v4l-.15-.19H179a.25.25,0,0,1,.18.08.22.22,0,0,1,.08.18.21.21,0,0,1-.08.19.24.24,0,0,1-.18.07h-4.16l.13-.14v4.12l-.05-.06h4.67a.24.24,0,0,1,.18.07.29.29,0,0,1,.08.19.26.26,0,0,1-.08.19.29.29,0,0,1-.18.07h-4.91a.27.27,0,0,1-.18-.08.24.24,0,0,1-.07-.18V75.9a.28.28,0,0,1,.07-.19A.26.26,0,0,1,174.65,75.64Z"/><path class="cls-4" d="M184.72,76.3l-3.29,8.27a.27.27,0,0,1-.09.12.27.27,0,0,1-.15,0,.24.24,0,0,1-.19-.07.22.22,0,0,1-.08-.15.3.3,0,0,1,0-.13l3.5-8.61a.32.32,0,0,1,.1-.14.33.33,0,0,1,.15,0,.31.31,0,0,1,.17,0,.27.27,0,0,1,.09.12l3.49,8.61a.25.25,0,0,1,0,.1.22.22,0,0,1-.08.18.27.27,0,0,1-.2.07.3.3,0,0,1-.16,0,.23.23,0,0,1-.1-.12l-3.39-8.37Zm-2.41,5.62.18-.52h4.22l.13.52Z"/><path class="cls-4" d="M196.78,75.64a.21.21,0,0,1,.18.07.23.23,0,0,1,.07.17v8.57a.27.27,0,0,1-.09.22.32.32,0,0,1-.19.07l-.11,0a.18.18,0,0,1-.09-.08l-6-8.24.18-.09v8.22a.21.21,0,0,1-.07.15.24.24,0,0,1-.18.07.21.21,0,0,1-.18-.07.18.18,0,0,1-.07-.15V75.9a.22.22,0,0,1,.08-.2.27.27,0,0,1,.16-.06.18.18,0,0,1,.1,0,.13.13,0,0,1,.09.07l6,8.19-.11.26v-8.3a.25.25,0,0,1,.08-.17A.23.23,0,0,1,196.78,75.64Z"/><path class="cls-4" d="M211.17,80.19a5.43,5.43,0,0,1-.32,1.89,4.31,4.31,0,0,1-.9,1.49,4.18,4.18,0,0,1-1.38,1,4.62,4.62,0,0,1-3.48,0,4.18,4.18,0,0,1-1.38-1,4.31,4.31,0,0,1-.9-1.49,5.77,5.77,0,0,1,0-3.79,4.26,4.26,0,0,1,.9-1.48,3.9,3.9,0,0,1,1.38-1,4.62,4.62,0,0,1,3.48,0,3.9,3.9,0,0,1,1.38,1,4.26,4.26,0,0,1,.9,1.48A5.45,5.45,0,0,1,211.17,80.19Zm-.54,0a4.77,4.77,0,0,0-.49-2.19,3.62,3.62,0,0,0-1.34-1.45,4,4,0,0,0-3.93,0A3.57,3.57,0,0,0,203.52,78a4.77,4.77,0,0,0-.49,2.19,4.7,4.7,0,0,0,.49,2.18,3.6,3.6,0,0,0,1.35,1.46,4,4,0,0,0,3.93,0,3.64,3.64,0,0,0,1.34-1.46A4.7,4.7,0,0,0,210.63,80.19Z"/><path class="cls-4" d="M216.88,75.64a2.29,2.29,0,0,1,1.66.6,2.09,2.09,0,0,1,.63,1.61,2.65,2.65,0,0,1-.22,1,2.07,2.07,0,0,1-.63.83,1.91,1.91,0,0,1-1,.37l-.09-.15a2.91,2.91,0,0,1,1,.15,2.12,2.12,0,0,1,.77.45,1.92,1.92,0,0,1,.51.73,2.48,2.48,0,0,1,.19,1,2.62,2.62,0,0,1-.21,1.09,2.17,2.17,0,0,1-.57.76,2.29,2.29,0,0,1-.84.46,3.47,3.47,0,0,1-1,.15h-3.59a.27.27,0,0,1-.26-.26V75.9a.29.29,0,0,1,.08-.19.24.24,0,0,1,.18-.07Zm-.07.52h-3.29l.15-.25V80l-.13-.22h3.27a1.87,1.87,0,0,0,1.29-.51,1.92,1.92,0,0,0,.52-1.47,1.64,1.64,0,0,0-.47-1.21A1.82,1.82,0,0,0,216.81,76.16Zm.09,4.18h-3.29l.06-.07v4l-.07-.1h3.3a2.59,2.59,0,0,0,1.55-.46,1.71,1.71,0,0,0,.62-1.48,1.93,1.93,0,0,0-.28-1.1,1.7,1.7,0,0,0-.78-.64A3,3,0,0,0,216.9,80.34Z"/><path class="cls-4" d="M224,84.87a3.86,3.86,0,0,1-1.74-.34,5.29,5.29,0,0,1-1.41-1l-.05-.07a.22.22,0,0,1,0-.12.28.28,0,0,1,.09-.2A.24.24,0,0,1,221,83a.29.29,0,0,1,.22.12,3.52,3.52,0,0,0,2.67,1.22,3,3,0,0,0,1.18-.22,1.83,1.83,0,0,0,.82-.61,1.48,1.48,0,0,0,.3-.93,1.61,1.61,0,0,0-.36-1.06,2.87,2.87,0,0,0-.91-.67c-.37-.17-.75-.33-1.16-.48s-.64-.24-1-.38a3.7,3.7,0,0,1-.85-.47,2,2,0,0,1-.59-.7,2.2,2.2,0,0,1-.23-1,2,2,0,0,1,.35-1.15,2.46,2.46,0,0,1,1-.82,3.6,3.6,0,0,1,1.53-.3,4.21,4.21,0,0,1,1.44.26,2.46,2.46,0,0,1,1.1.8.55.55,0,0,1,.13.28.26.26,0,0,1-.09.18.33.33,0,0,1-.22.09.23.23,0,0,1-.17-.08,2.22,2.22,0,0,0-.56-.54,2.59,2.59,0,0,0-.75-.35A3.17,3.17,0,0,0,224,76a3,3,0,0,0-1.16.21,1.83,1.83,0,0,0-.83.59,1.43,1.43,0,0,0-.32.94,1.4,1.4,0,0,0,.35,1,2.67,2.67,0,0,0,.88.64c.35.17.71.32,1.09.46s.65.24,1,.37a3.79,3.79,0,0,1,.88.5,2.08,2.08,0,0,1,.63.75,2.48,2.48,0,0,1,.24,1.15,1.89,1.89,0,0,1-.35,1.1,2.46,2.46,0,0,1-1,.82A3.38,3.38,0,0,1,224,84.87Z"/><path class="cls-4" d="M229,75.64h4.9a.24.24,0,0,1,.18.07.25.25,0,0,1,.08.19.22.22,0,0,1-.08.19.29.29,0,0,1-.18.07h-4.74l.13-.22v4l-.16-.19h4.19a.27.27,0,0,1,.26.26.26.26,0,0,1-.26.26h-4.16l.13-.14v4.12l-.06-.06h4.67a.24.24,0,0,1,.18.07.25.25,0,0,1,.08.19.22.22,0,0,1-.08.19.29.29,0,0,1-.18.07H229a.27.27,0,0,1-.26-.26V75.9a.29.29,0,0,1,.08-.19A.24.24,0,0,1,229,75.64Z"/><path class="cls-4" d="M236.36,84.74a.28.28,0,0,1-.2-.08.29.29,0,0,1-.07-.18V75.9a.29.29,0,0,1,.08-.19.24.24,0,0,1,.18-.07h3.43a2.92,2.92,0,0,1,1.35.3,2.35,2.35,0,0,1,.9.84,2.27,2.27,0,0,1,.33,1.21,2.51,2.51,0,0,1-.22,1.08,2.17,2.17,0,0,1-.59.8,2.39,2.39,0,0,1-.88.46l-.6-.1a2,2,0,0,1,1.75,1,2.47,2.47,0,0,1,.3,1.26,6,6,0,0,0,.06,1,1.27,1.27,0,0,0,.16.48.7.7,0,0,0,.23.25.28.28,0,0,1,.11.13.27.27,0,0,1,0,.18.3.3,0,0,1-.09.13.21.21,0,0,1-.12,0,.27.27,0,0,1-.15,0,1.24,1.24,0,0,1-.35-.31,1.66,1.66,0,0,1-.3-.64,5.39,5.39,0,0,1-.11-1.22,2.21,2.21,0,0,0-.19-1,1.57,1.57,0,0,0-.48-.56,1.83,1.83,0,0,0-.63-.26,3.38,3.38,0,0,0-.6-.06h-3.16l.12-.16v4a.25.25,0,0,1-.08.18A.28.28,0,0,1,236.36,84.74Zm.15-4.59h3.34a2.47,2.47,0,0,0,1-.31,2.07,2.07,0,0,0,1-1.84,1.76,1.76,0,0,0-.56-1.32,2.17,2.17,0,0,0-1.53-.52h-3.15l.07-.09v4.22Z"/><path class="cls-4" d="M251.09,75.64a.3.3,0,0,1,.2.06.25.25,0,0,1,.06.17.69.69,0,0,1,0,.13l-3.56,8.57a.43.43,0,0,1-.11.12.24.24,0,0,1-.14,0,.3.3,0,0,1-.15,0,.23.23,0,0,1-.1-.12L243.73,76a.14.14,0,0,0,0-.06.31.31,0,0,1,0-.1.23.23,0,0,1,.07-.17.25.25,0,0,1,.17-.07.31.31,0,0,1,.29.21L247.61,84h-.16l3.4-8.16A.26.26,0,0,1,251.09,75.64Z"/><path class="cls-4" d="M253.65,84.46a.29.29,0,0,1-.09.2.25.25,0,0,1-.18.08.26.26,0,0,1-.2-.08.27.27,0,0,1-.07-.2V75.91a.26.26,0,0,1,.08-.2.25.25,0,0,1,.19-.07.24.24,0,0,1,.27.27Z"/><path class="cls-4" d="M262.83,75.64a.21.21,0,0,1,.18.07.23.23,0,0,1,.07.17v8.57a.27.27,0,0,1-.09.22.29.29,0,0,1-.18.07.3.3,0,0,1-.21-.11l-6-8.24.18-.09v8.22a.18.18,0,0,1-.07.15.24.24,0,0,1-.18.07.24.24,0,0,1-.25-.22V75.9a.22.22,0,0,1,.08-.2.27.27,0,0,1,.16-.06.18.18,0,0,1,.1,0,.13.13,0,0,1,.09.07l6,8.19-.1.26v-8.3a.23.23,0,0,1,.07-.17A.25.25,0,0,1,262.83,75.64Z"/><path class="cls-4" d="M269.7,84.87a4.94,4.94,0,0,1-1.87-.35,4.37,4.37,0,0,1-1.48-1,4.44,4.44,0,0,1-1-1.49,5.31,5.31,0,0,1,0-3.74,4.34,4.34,0,0,1,1-1.49,4.4,4.4,0,0,1,1.48-1,4.94,4.94,0,0,1,1.87-.34,5.65,5.65,0,0,1,1.37.17,4,4,0,0,1,1.19.53.28.28,0,0,1,.09.1.25.25,0,0,1,0,.12.24.24,0,0,1-.09.2.29.29,0,0,1-.15.06l-.09,0-.08,0a4.94,4.94,0,0,0-1-.44A4.07,4.07,0,0,0,269.7,76a4.17,4.17,0,0,0-2.14.54A3.89,3.89,0,0,0,266.1,78a4.7,4.7,0,0,0,0,4.3,3.75,3.75,0,0,0,1.46,1.47,4.17,4.17,0,0,0,2.14.54,4.33,4.33,0,0,0,1.28-.2,4.39,4.39,0,0,0,1.11-.53l0,.23V80.6l.18.17H269.7a.25.25,0,0,1-.19-.08.24.24,0,0,1-.07-.18.25.25,0,0,1,.07-.19.34.34,0,0,1,.19-.07h2.6a.23.23,0,0,1,.18.08.25.25,0,0,1,.08.18v3.27a.26.26,0,0,1,0,.11.34.34,0,0,1-.09.12,4.9,4.9,0,0,1-1.28.62A4.51,4.51,0,0,1,269.7,84.87Z"/><path class="cls-4" d="M280.59,84.87a3.86,3.86,0,0,1-1.74-.34,5.29,5.29,0,0,1-1.41-1l-.05-.07a.22.22,0,0,1,0-.12.28.28,0,0,1,.09-.2.24.24,0,0,1,.19-.1.29.29,0,0,1,.22.12,3.52,3.52,0,0,0,2.67,1.22,3,3,0,0,0,1.18-.22,1.83,1.83,0,0,0,.82-.61,1.48,1.48,0,0,0,.3-.93,1.61,1.61,0,0,0-.36-1.06,2.87,2.87,0,0,0-.91-.67c-.37-.17-.76-.33-1.16-.48s-.64-.24-1-.38a3.5,3.5,0,0,1-.85-.47,2,2,0,0,1-.59-.7,2.2,2.2,0,0,1-.23-1,2,2,0,0,1,.35-1.15,2.46,2.46,0,0,1,1-.82,3.55,3.55,0,0,1,1.52-.3,4.22,4.22,0,0,1,1.45.26,2.46,2.46,0,0,1,1.1.8.55.55,0,0,1,.13.28.24.24,0,0,1-.1.18.29.29,0,0,1-.21.09.23.23,0,0,1-.17-.08,2.22,2.22,0,0,0-.56-.54,2.72,2.72,0,0,0-.75-.35,3.19,3.19,0,0,0-.89-.12,3,3,0,0,0-1.15.21,1.83,1.83,0,0,0-.83.59,1.43,1.43,0,0,0-.32.94,1.4,1.4,0,0,0,.35,1,2.67,2.67,0,0,0,.88.64c.35.17.71.32,1.09.46s.65.24,1,.37a3.79,3.79,0,0,1,.88.5,2.08,2.08,0,0,1,.63.75,2.48,2.48,0,0,1,.24,1.15,1.89,1.89,0,0,1-.35,1.1,2.46,2.46,0,0,1-1,.82A3.38,3.38,0,0,1,280.59,84.87Z"/><path class="cls-4" d="M290.46,75.58a.23.23,0,0,1,.19.1.33.33,0,0,1,.07.15.37.37,0,0,1-.06.17l-3.08,4.19.12-.38v4.67a.25.25,0,0,1-.08.18.26.26,0,0,1-.19.08.27.27,0,0,1-.28-.26V79.9l.07.27-3-4.17a.2.2,0,0,1,0-.08.22.22,0,0,1,0-.09.2.2,0,0,1,.09-.17.29.29,0,0,1,.18-.08.25.25,0,0,1,.22.12l2.89,3.94-.13,0,2.86-3.92A.24.24,0,0,1,290.46,75.58Z"/><path class="cls-4" d="M294.33,84.87a3.86,3.86,0,0,1-1.74-.34,5.25,5.25,0,0,1-1.4-1,.22.22,0,0,1-.06-.07.37.37,0,0,1,0-.12.28.28,0,0,1,.09-.2.24.24,0,0,1,.19-.1.29.29,0,0,1,.22.12,3.72,3.72,0,0,0,1.22.91,3.63,3.63,0,0,0,1.45.31,3,3,0,0,0,1.18-.22,1.83,1.83,0,0,0,.82-.61,1.48,1.48,0,0,0,.3-.93,1.61,1.61,0,0,0-.36-1.06,2.87,2.87,0,0,0-.91-.67c-.37-.17-.75-.33-1.16-.48s-.64-.24-.95-.38a3.7,3.7,0,0,1-.85-.47,2,2,0,0,1-.59-.7,2.21,2.21,0,0,1-.22-1,2,2,0,0,1,.34-1.15,2.46,2.46,0,0,1,1-.82,3.6,3.6,0,0,1,1.53-.3,4.21,4.21,0,0,1,1.44.26,2.41,2.41,0,0,1,1.1.8.55.55,0,0,1,.13.28A.26.26,0,0,1,297,77a.33.33,0,0,1-.22.09.23.23,0,0,1-.17-.08,2.22,2.22,0,0,0-.56-.54,2.59,2.59,0,0,0-.75-.35,3.17,3.17,0,0,0-.88-.12,3.07,3.07,0,0,0-1.16.21,1.83,1.83,0,0,0-.83.59,1.42,1.42,0,0,0-.31.94,1.39,1.39,0,0,0,.34,1,2.67,2.67,0,0,0,.88.64c.35.17.72.32,1.09.46s.65.24,1,.37a3.59,3.59,0,0,1,.88.5,2.08,2.08,0,0,1,.63.75,2.48,2.48,0,0,1,.24,1.15,1.89,1.89,0,0,1-.35,1.1,2.5,2.5,0,0,1-1,.82A3.46,3.46,0,0,1,294.33,84.87Z"/><path class="cls-4" d="M298.52,76.13a.28.28,0,0,1-.19-.07.24.24,0,0,1-.07-.18.23.23,0,0,1,.07-.17.28.28,0,0,1,.19-.07h6.31a.28.28,0,0,1,.19.07.23.23,0,0,1,.07.17.25.25,0,0,1-.07.19.33.33,0,0,1-.19.06Zm3.16,8.61a.26.26,0,0,1-.26-.26V76h.52v8.53a.25.25,0,0,1-.08.18A.27.27,0,0,1,301.68,84.74Z"/><path class="cls-4" d="M307.11,75.64H312a.24.24,0,0,1,.18.07.29.29,0,0,1,.08.19.26.26,0,0,1-.08.19.29.29,0,0,1-.18.07h-4.74l.13-.22v4l-.16-.19h4.19a.27.27,0,0,1,.18.08.25.25,0,0,1,.08.18.24.24,0,0,1-.08.19.26.26,0,0,1-.18.07h-4.16l.13-.14v4.12l-.06-.06H312a.24.24,0,0,1,.18.07.29.29,0,0,1,.08.19.26.26,0,0,1-.08.19.29.29,0,0,1-.18.07h-4.9a.27.27,0,0,1-.26-.26V75.9a.29.29,0,0,1,.08-.19A.24.24,0,0,1,307.11,75.64Z"/><path class="cls-4" d="M314.47,75.64l.13,0a.31.31,0,0,1,.11.09l3.74,5.56h-.26l3.73-5.56a.23.23,0,0,1,.24-.11.25.25,0,0,1,.17.08.24.24,0,0,1,.07.18v8.58a.23.23,0,0,1-.09.18.27.27,0,0,1-.38,0,.25.25,0,0,1-.08-.18v-8H322l-3.49,5.29a.19.19,0,0,1-.07.08.21.21,0,0,1-.12,0,.27.27,0,0,1-.12,0s-.07,0-.08-.08l-3.58-5.39h.21v8.1a.27.27,0,0,1-.26.26.26.26,0,0,1-.19-.08.24.24,0,0,1-.07-.18V75.9a.27.27,0,0,1,.07-.18A.22.22,0,0,1,314.47,75.64Z"/></g></svg>